<svg width="145" height="145" viewBox="0 0 145 145" fill="none" xmlns="http://www.w3.org/2000/svg">
<path d="M67.4813 53.4875C67.5489 53.5513 67.6165 53.6152 67.6861 53.681C67.8567 53.8418 68.0327 53.9892 68.214 54.1376C70.8427 56.4496 72.3368 60.0325 72.6323 63.4645C72.6613 63.9545 72.6624 64.4447 72.6598 64.9354C72.6596 65.0005 72.6594 65.0656 72.6592 65.1326C72.64 69.2627 71.0675 72.9754 68.1368 75.8931C67.3537 76.6388 66.5004 77.2664 65.5806 77.8323C65.5254 77.8665 65.4703 77.9006 65.4134 77.9359C61.6894 80.2138 57.0152 80.6574 52.805 79.6999C50.9972 79.2526 49.1838 78.5089 47.687 77.3915C47.6407 77.3575 47.5945 77.3234 47.5468 77.2883C46.8855 76.8 46.2581 76.281 45.6596 75.7168C45.6012 75.663 45.5428 75.6093 45.4827 75.5539C42.6483 72.8515 41.3691 68.9707 41.2524 65.1393C41.2413 63.9211 41.3615 62.7184 41.6049 61.5253C41.6185 61.4585 41.6321 61.3916 41.6461 61.3228C42.4387 57.6001 44.8858 54.387 48.0253 52.3049C49.8702 51.114 51.8755 50.3634 54.0335 49.9782C54.1438 49.9581 54.2542 49.938 54.3678 49.9172C58.9665 49.2358 63.976 50.3371 67.4813 53.4875ZM51.8696 59.7873C50.4482 61.4694 50.0141 63.6965 50.1823 65.8382C50.3509 67.5093 50.9507 69.0919 52.0943 70.3399C52.1439 70.3956 52.1936 70.4512 52.2448 70.5086C53.4046 71.7418 55.0019 72.3691 56.6731 72.4533C58.5501 72.5047 60.1954 71.9314 61.5832 70.645C63.0913 69.1782 63.7669 67.1426 63.8204 65.0763C63.8278 63.0699 63.2416 61.0924 61.8785 59.5861C61.789 59.4843 61.789 59.4843 61.6977 59.3805C60.5722 58.1727 59.0313 57.5455 57.4023 57.4513C55.2212 57.3809 53.3234 58.1706 51.8696 59.7873Z" fill="white"/>
<path d="M119.493 49.7749C119.59 49.7751 119.59 49.7751 119.689 49.7754C123.306 49.7904 126.562 50.8177 129.222 53.3283C129.287 53.3876 129.352 53.4469 129.419 53.508C130.736 54.7552 131.66 56.4092 132.307 58.0882C132.345 58.186 132.383 58.2838 132.422 58.3846C133.529 61.4669 133.458 64.5605 133.1 67.7842C126.846 67.7842 120.592 67.7842 114.149 67.7842C114.571 68.8902 114.571 68.8902 115.17 69.8157C115.295 69.9878 115.295 69.9878 115.383 70.2523C115.499 70.3149 115.617 70.373 115.736 70.4286C115.88 70.5372 116.023 70.6476 116.165 70.7591C118.164 72.2234 120.795 72.127 123.161 72.1398C123.358 72.1415 123.555 72.1432 123.752 72.145C124.263 72.1495 124.774 72.153 125.284 72.1563C125.901 72.1605 126.518 72.1659 127.135 72.1711C128.066 72.1788 128.996 72.185 129.927 72.1915C129.927 74.5767 129.927 76.9619 129.927 79.4194C128.682 79.4248 127.437 79.4301 126.193 79.4327C125.524 79.4342 124.855 79.436 124.186 79.4394C123.599 79.4424 123.011 79.4439 122.424 79.4445C122.202 79.445 121.979 79.446 121.757 79.4474C117.906 79.4714 113.776 78.8165 110.623 76.4225C110.53 76.3539 110.437 76.2852 110.34 76.2145C109.346 75.475 108.472 74.6747 107.714 73.69C107.616 73.5678 107.616 73.5678 107.517 73.4431C105.831 71.2883 104.893 68.545 104.876 65.8081C104.875 65.7402 104.874 65.6722 104.874 65.6021C104.864 64.1408 104.854 62.6978 105.158 61.2614C105.175 61.1801 105.192 61.0989 105.21 61.0151C105.727 58.6416 106.753 56.4982 108.331 54.6505C108.371 54.6033 108.412 54.5562 108.453 54.5076C109.004 53.8673 109.596 53.3101 110.271 52.7994C110.36 52.7299 110.449 52.6603 110.541 52.5887C113.12 50.6261 116.286 49.7582 119.493 49.7749ZM115.206 58.8302C114.502 59.7906 113.973 61.0272 113.973 62.231C117.55 62.231 121.128 62.231 124.815 62.231C124.477 60.3165 124.06 58.8754 122.435 57.7356C122.092 57.532 121.744 57.3619 121.377 57.2067C121.271 57.1615 121.271 57.1615 121.162 57.1155C119.061 56.3925 116.601 57.1532 115.206 58.8302Z" fill="white"/>
<path d="M10.401 50.5073C13.6007 50.5073 16.8004 50.5073 20.097 50.5073C20.8108 52.9543 20.8108 52.9543 21.1465 54.1372C21.1855 54.2744 21.2246 54.4116 21.2636 54.5488C21.3675 54.9144 21.4712 55.2799 21.575 55.6455C21.6405 55.8764 21.7061 56.1073 21.7716 56.3383C22.3899 58.516 23.0045 60.6948 23.6154 62.8746C23.7445 63.3353 23.8738 63.796 24.0032 64.2566C24.1069 64.626 24.2106 64.9954 24.3143 65.3647C24.3342 65.4356 24.3541 65.5065 24.3745 65.5795C24.6024 66.3919 24.8283 67.2047 25.0502 68.0187C25.1561 68.4069 25.2629 68.7948 25.3699 69.1827C25.4383 69.4325 25.5051 69.6828 25.5718 69.9331C25.6118 70.0785 25.652 70.224 25.6922 70.3694C25.7168 70.4646 25.7168 70.4646 25.7418 70.5616C25.859 70.9757 26.0312 71.2063 26.3554 71.486C26.574 71.4525 26.574 71.4525 26.7961 71.3098C26.9058 71.0567 26.9814 70.8311 27.0516 70.5667C27.0748 70.4855 27.098 70.4042 27.1219 70.3205C27.174 70.137 27.2252 69.9533 27.2757 69.7694C27.3607 69.4599 27.4479 69.1511 27.5355 68.8423C27.6376 68.4823 27.7394 68.1222 27.8404 67.7619C28.1693 66.5889 28.505 65.4178 28.8417 64.2471C28.8841 64.0998 28.8841 64.0998 28.9273 63.9495C29.0439 63.544 29.1606 63.1385 29.2772 62.7329C29.575 61.6976 29.872 60.6619 30.169 59.6263C31.0407 56.5861 31.9153 53.5467 32.79 50.5073C35.9316 50.5073 39.0731 50.5073 42.3098 50.5073C41.0978 54.2442 41.0978 54.2442 40.634 55.6122C40.5802 55.7714 40.5264 55.9307 40.4727 56.0899C40.3595 56.4251 40.2462 56.7602 40.1328 57.0954C39.8251 58.0053 39.5181 58.9155 39.2113 59.8257C39.1637 59.9668 39.1637 59.9668 39.1151 60.1107C38.3606 62.3491 37.6131 64.5898 36.8668 66.8308C36.8365 66.9218 36.8062 67.0127 36.775 67.1064C36.3056 68.5161 35.8363 69.9258 35.3674 71.3356C35.2447 71.7045 35.1219 72.0735 34.999 72.4424C34.9544 72.5766 34.9098 72.7107 34.8652 72.8449C33.6275 76.568 33.6275 76.568 32.2612 77.9207C32.1988 77.985 32.1364 78.0493 32.0721 78.1156C30.5196 79.6177 28.2759 80.1617 26.1771 80.1509C23.9178 80.0971 21.8906 79.346 20.2733 77.7444C20.1933 77.6699 20.1134 77.5953 20.0309 77.5185C19.111 76.5219 18.6382 75.3146 18.2264 74.0406C18.1848 73.9146 18.1432 73.7886 18.1015 73.6627C17.9923 73.3324 17.8843 73.0017 17.7765 72.671C17.6087 72.1569 17.4391 71.6433 17.2699 71.1297C17.2264 70.9975 17.1829 70.8652 17.1394 70.7329C16.8198 69.7607 16.4932 68.7911 16.1609 67.8231C15.526 65.9724 14.904 64.1175 14.2856 62.2612C14.1482 61.8487 14.0106 61.4362 13.8731 61.0237C13.6438 60.3361 13.4147 59.6484 13.1856 58.9608C12.9209 58.1661 12.6559 57.3715 12.3909 56.5769C12.1614 55.8886 11.9319 55.2003 11.7025 54.5119C11.5663 54.1032 11.4301 53.6945 11.2938 53.2858C11.1667 52.9049 11.0398 52.524 10.913 52.1431C10.8664 52.0033 10.8198 51.8634 10.7732 51.7236C10.7098 51.5338 10.6466 51.3439 10.5834 51.154C10.548 51.0476 10.5125 50.9412 10.476 50.8316C10.401 50.5955 10.401 50.5955 10.401 50.5073Z" fill="white"/>
<path d="M124.598 87.9824C124.821 88.1796 125.039 88.3817 125.255 88.5863C125.327 88.6512 125.398 88.7161 125.472 88.7829C127.478 90.6721 128.649 93.6241 128.869 96.3432C128.882 96.7879 128.88 97.2325 128.879 97.6774C128.879 97.8121 128.879 97.9468 128.879 98.0815C128.879 98.4455 128.879 98.8095 128.878 99.1735C128.878 99.5546 128.878 99.9356 128.877 100.317C128.877 101.037 128.876 101.758 128.876 102.479C128.875 103.3 128.874 104.121 128.874 104.942C128.873 106.63 128.871 108.318 128.869 110.006C127.94 110.008 127.01 110.009 126.081 110.01C125.65 110.011 125.218 110.011 124.787 110.012C124.37 110.013 123.954 110.014 123.538 110.014C123.379 110.014 123.22 110.015 123.061 110.015C122.839 110.016 122.617 110.016 122.395 110.016C122.328 110.016 122.262 110.016 122.194 110.017C121.739 110.016 121.739 110.016 121.641 109.918C121.627 109.644 121.618 109.373 121.613 109.099C121.612 109.017 121.61 108.935 121.608 108.851C121.602 108.587 121.597 108.324 121.592 108.061C121.588 107.883 121.584 107.705 121.58 107.527C121.571 107.09 121.562 106.653 121.553 106.215C121.515 106.285 121.476 106.354 121.436 106.426C121.137 106.954 120.844 107.434 120.418 107.868C120.373 107.916 120.327 107.964 120.28 108.013C120.147 108.15 120.013 108.285 119.878 108.419C119.812 108.487 119.746 108.554 119.677 108.623C117.971 110.25 115.611 110.611 113.345 110.56C110.467 110.448 108.015 109.21 106.069 107.108C103.622 104.264 102.729 100.538 102.995 96.8448C103.247 93.8016 104.387 91.161 106.48 88.9389C106.533 88.8804 106.586 88.8219 106.64 88.7616C110.989 84.1312 119.834 83.9513 124.598 87.9824ZM112.395 92.9933C112.334 93.0516 112.273 93.1098 112.21 93.1699C112.155 93.22 112.1 93.2701 112.044 93.3217C110.901 94.4852 110.434 96.3472 110.447 97.9298C110.519 99.7745 110.99 101.403 112.282 102.778C113.358 103.76 114.749 104.222 116.19 104.183C117.648 104.092 118.963 103.502 119.967 102.425C121.254 100.76 121.568 98.724 121.357 96.6777C121.15 95.2159 120.403 93.6446 119.214 92.7343C117.108 91.3313 114.355 91.2685 112.395 92.9933Z" fill="white"/>
<path d="M56.4136 85.9424C56.5062 85.9749 56.5988 86.0074 56.6942 86.0408C59.1291 86.9786 61.1267 88.969 62.1952 91.3348C63.0261 93.2618 63.3949 95.269 63.3936 97.3628C63.3936 97.4709 63.3936 97.5791 63.3936 97.6905C63.3795 99.9552 63.3795 99.9552 63.1127 100.222C62.9107 100.231 62.7085 100.233 62.5064 100.233C62.4102 100.233 62.4102 100.233 62.312 100.233C62.0955 100.233 61.8789 100.232 61.6624 100.232C61.5078 100.232 61.3532 100.232 61.1986 100.232C60.7776 100.232 60.3565 100.232 59.9355 100.231C59.496 100.23 59.0565 100.23 58.617 100.23C57.7841 100.23 56.9512 100.229 56.1183 100.228C55.1703 100.227 54.2224 100.227 53.2744 100.226C51.3239 100.226 49.3733 100.224 47.4227 100.222C47.4888 100.403 47.5558 100.583 47.6231 100.763C47.6603 100.863 47.6975 100.964 47.7358 101.067C48.1907 102.139 49.0076 102.824 50.0561 103.291C51.5978 103.88 53.207 103.849 54.8321 103.864C54.9982 103.866 55.1643 103.868 55.3304 103.869C55.7629 103.874 56.1955 103.879 56.628 103.883C57.1495 103.888 57.6709 103.894 58.1924 103.9C58.9804 103.908 59.7684 103.916 60.5565 103.924C60.5565 105.931 60.5565 107.938 60.5565 110.006C58.7275 110.013 58.7275 110.013 57.9338 110.015C57.3971 110.016 56.8604 110.017 56.3238 110.019C51.2948 110.042 46.7076 109.718 42.8391 106.128C42.7868 106.081 42.7344 106.035 42.6804 105.987C40.6152 104.064 39.7062 101.168 39.5903 98.4216C39.4816 94.7756 40.495 91.4676 42.993 88.7627C46.3567 85.2167 51.8978 84.3564 56.4136 85.9424ZM48.8881 92.1401C47.8722 93.1235 47.3901 94.2477 47.1583 95.6384C50.1544 95.6384 53.1504 95.6384 56.2373 95.6384C55.9939 94.056 55.6735 92.8884 54.3584 91.9115C52.7197 90.862 50.3946 90.838 48.8881 92.1401Z" fill="white"/>
<path d="M73.742 85.7393C74.073 85.7409 74.404 85.7411 74.7351 85.7414C75.3587 85.7422 75.9824 85.7444 76.6061 85.747C77.4511 85.7506 78.2961 85.752 79.1411 85.7535C80.4679 85.756 81.7946 85.7613 83.1214 85.7661C83.1214 87.715 83.1214 89.6639 83.1214 91.6718C81.9899 91.6768 81.9899 91.6768 80.8355 91.6818C80.2962 91.6848 79.7569 91.688 79.2176 91.6914C78.5194 91.6958 77.8212 91.6998 77.123 91.7024C76.57 91.7044 76.0172 91.7074 75.4643 91.7114C75.1717 91.7135 74.8792 91.715 74.5867 91.7157C74.2594 91.7166 73.9322 91.719 73.605 91.7219C73.5089 91.7218 73.4128 91.7216 73.3139 91.7215C72.636 91.7298 72.0458 91.8046 71.4917 92.2172C71.2637 92.5281 71.1467 92.7826 71.1336 93.1703C71.1935 93.4482 71.289 93.7018 71.398 93.9636C71.4271 94.0509 71.4562 94.1382 71.4862 94.2281C71.68 94.3308 71.68 94.3308 71.9269 94.4044C72.0077 94.4345 72.0886 94.4647 72.1719 94.4958C72.6482 94.63 73.1413 94.6083 73.6325 94.6102C73.8177 94.611 74.0028 94.6128 74.188 94.6149C74.582 94.6191 74.976 94.622 75.3701 94.6247C75.8252 94.6279 76.2803 94.6316 76.7355 94.6367C76.9156 94.6385 77.0957 94.6392 77.2759 94.6399C79.3243 94.6614 81.5772 95.0756 83.1214 96.5199C83.19 96.5816 83.2587 96.6433 83.3294 96.7068C84.7096 98.006 85.2782 99.8129 85.343 101.671C85.3661 103.026 85.2322 104.281 84.6199 105.511C84.5789 105.594 84.5379 105.677 84.4956 105.763C83.6147 107.462 82.0454 108.941 80.2126 109.565C79.9662 109.638 79.7184 109.703 79.4689 109.764C79.41 109.778 79.3512 109.793 79.2906 109.807C78.3262 110.024 77.3384 110.019 76.3549 110.016C76.228 110.016 76.101 110.016 75.9741 110.016C75.6329 110.016 75.2917 110.016 74.9504 110.015C74.5926 110.015 74.2347 110.015 73.8769 110.014C73.2007 110.014 72.5246 110.013 71.8484 110.013C70.9337 110.011 70.019 110.011 69.1042 110.01C67.6652 110.01 66.2261 110.008 64.7871 110.006C64.7871 108.057 64.7871 106.108 64.7871 104.1C65.6443 104.098 66.5015 104.096 67.3846 104.094C67.9277 104.091 68.4708 104.089 69.0139 104.086C69.876 104.082 70.7379 104.078 71.6 104.077C72.2278 104.075 72.8556 104.073 73.4834 104.069C73.8157 104.067 74.148 104.066 74.4803 104.066C74.7934 104.066 75.1065 104.064 75.4196 104.062C75.5886 104.06 75.7575 104.061 75.9264 104.062C76.5953 104.054 77.1118 103.999 77.6242 103.527C77.9502 103.17 77.9573 102.75 77.9504 102.288C77.9058 101.964 77.7706 101.797 77.5682 101.544C77.5682 101.486 77.5682 101.428 77.5682 101.368C77.0897 101.11 76.6562 100.994 76.1123 100.99C75.9998 100.989 75.8874 100.988 75.7715 100.986C75.712 100.986 75.6525 100.986 75.5912 100.986C75.4027 100.985 75.2142 100.983 75.0257 100.981C74.6245 100.977 74.2233 100.974 73.822 100.971C73.3589 100.968 72.8958 100.964 72.4327 100.959C72.2493 100.958 72.0658 100.957 71.8824 100.956C70.8106 100.945 69.7744 100.831 68.7481 100.514C68.6358 100.48 68.6358 100.48 68.5213 100.445C67.55 100.134 66.7021 99.6615 65.933 98.988C65.8452 98.9126 65.8452 98.9126 65.7557 98.8358C64.3388 97.5274 63.8485 95.7187 63.7402 93.8479C63.6586 91.7974 64.2872 89.8518 65.6685 88.3223C65.726 88.2566 65.7835 88.191 65.8428 88.1233C67.9757 85.8306 70.8055 85.7218 73.742 85.7393Z" fill="white"/>
<path d="M99.2019 50.4971C99.264 50.4971 99.3261 50.4971 99.3901 50.497C99.5885 50.4971 99.7868 50.4978 99.9852 50.4985C100.109 50.4986 100.232 50.4987 100.356 50.4987C100.811 50.4992 101.266 50.5004 101.721 50.5016C103.248 50.5043 103.248 50.5043 104.806 50.5071C104.806 52.9505 104.806 55.3939 104.806 57.9113C102.519 57.9389 102.519 57.9389 101.808 57.9455C100.286 57.9655 98.8824 58.0294 97.4896 58.7046C97.4257 58.7327 97.3619 58.7608 97.2961 58.7897C95.8082 59.4695 94.8097 60.8258 94.2306 62.3176C93.5232 64.3913 93.6924 66.5483 94.6138 68.5219C94.9429 69.1438 95.3879 69.6863 95.9029 70.1636C95.9817 70.2369 95.9817 70.2369 96.062 70.3117C96.6636 70.857 97.2515 71.2127 98.0074 71.5023C98.0645 71.5244 98.1216 71.5464 98.1805 71.5691C99.0546 71.8902 99.9022 71.9544 100.829 71.963C100.981 71.9654 100.981 71.9654 101.136 71.9677C101.511 71.9733 101.886 71.9774 102.26 71.9816C103.52 71.998 103.52 71.998 104.806 72.0147C104.806 74.4581 104.806 76.9015 104.806 79.4189C103.858 79.4244 102.911 79.4298 101.935 79.4354C101.641 79.4379 101.346 79.4403 101.043 79.4427C96.3955 79.4649 92.2492 78.2355 88.8286 74.9892C88.4498 74.61 88.1195 74.2024 87.7935 73.7776C87.7294 73.6983 87.6654 73.619 87.5993 73.5373C86.375 71.9834 85.5738 70.1509 85.1492 68.2244C85.1096 68.0546 85.1096 68.0546 85.0693 67.8815C84.6666 65.9406 84.6922 63.6286 85.1492 61.7016C85.1683 61.6156 85.1683 61.6156 85.1878 61.5278C85.6073 59.6617 86.4517 57.9216 87.6172 56.4129C87.6796 56.3307 87.742 56.2486 87.8063 56.1639C89.0273 54.6121 90.5013 53.4317 92.2008 52.4463C92.2542 52.4152 92.3076 52.3841 92.3627 52.352C94.3647 51.2105 96.8896 50.4929 99.2019 50.4971Z" fill="white"/>
<path d="M13.9271 85.7657C16.5742 85.7657 19.2212 85.7657 21.9484 85.7657C22.6563 88.0917 22.6563 88.0917 22.9301 89.0822C22.9619 89.1966 22.9937 89.3109 23.0256 89.4252C23.0929 89.6669 23.16 89.9085 23.2271 90.1502C23.3902 90.7384 23.5541 91.3264 23.718 91.9144C23.7753 92.1201 23.8326 92.3257 23.8899 92.5314C24.3157 94.06 24.7461 95.5873 25.1768 97.1145C25.213 97.243 25.2492 97.3715 25.2854 97.5C25.303 97.5623 25.3206 97.6247 25.3387 97.689C25.3738 97.8134 25.4089 97.9378 25.444 98.0623C25.5292 98.3644 25.6144 98.6665 25.6997 98.9686C25.8572 99.526 26.014 100.084 26.169 100.642C26.2418 100.904 26.3149 101.166 26.3879 101.428C26.4226 101.553 26.4571 101.677 26.4914 101.802C26.5389 101.974 26.5868 102.146 26.6347 102.318C26.6753 102.464 26.6753 102.464 26.7167 102.614C26.7853 102.831 26.8633 103.019 26.9727 103.219C27.1473 103.219 27.3218 103.219 27.5016 103.219C27.9837 101.662 28.437 100.097 28.8848 98.5304C28.9819 98.1911 29.0791 97.8518 29.1763 97.5125C29.3603 96.8703 29.5441 96.228 29.7278 95.5857C30.0553 94.4412 30.383 93.2966 30.7108 92.1521C30.825 91.7534 30.9391 91.3546 31.0532 90.9557C31.2444 90.2872 31.436 89.6188 31.628 88.9505C31.7004 88.6986 31.7727 88.4467 31.8449 88.1947C31.9375 87.8715 32.0304 87.5485 32.1236 87.2255C32.1587 87.1034 32.1938 86.9812 32.2287 86.8591C32.2767 86.6914 32.3251 86.5239 32.3735 86.3564C32.4009 86.2612 32.4283 86.166 32.4565 86.0678C32.5259 85.8539 32.5259 85.8539 32.6141 85.7657C32.8582 85.7573 33.1001 85.7546 33.3442 85.7557C33.459 85.7557 33.459 85.7557 33.5761 85.7557C33.8303 85.7557 34.0845 85.7564 34.3388 85.7571C34.5145 85.7573 34.6903 85.7574 34.866 85.7575C35.3296 85.7578 35.7932 85.7587 36.2568 85.7597C36.7294 85.7606 37.2021 85.761 37.6747 85.7614C38.6028 85.7624 39.5309 85.7639 40.459 85.7657C40.3243 86.4507 40.1115 87.0985 39.8849 87.7578C39.8441 87.8775 39.8034 87.9972 39.7627 88.1169C39.675 88.3747 39.5872 88.6325 39.4991 88.8901C39.2578 89.5961 39.0183 90.3026 38.7788 91.0091C38.7537 91.0828 38.7287 91.1566 38.7029 91.2326C38.1772 92.7825 37.6612 94.3355 37.1475 95.8895C37.0019 96.3297 36.8561 96.7698 36.7102 97.2099C36.6615 97.357 36.6128 97.5041 36.564 97.6512C36.5278 97.7604 36.5278 97.7604 36.4909 97.8719C36.1698 98.8408 35.849 99.8097 35.5295 100.779C35.3076 101.452 35.085 102.125 34.8615 102.797C34.7452 103.147 34.6292 103.498 34.5142 103.848C32.9846 108.509 32.9846 108.509 30.6535 109.757C28.9049 110.639 26.8185 110.829 24.9489 110.243C24.0006 109.923 23.1581 109.511 22.3891 108.86C22.3196 108.801 22.2501 108.743 22.1784 108.682C21.1578 107.745 20.7312 106.48 20.3143 105.199C20.2615 105.041 20.2085 104.882 20.1554 104.723C20.0442 104.39 19.9337 104.057 19.8237 103.723C19.6614 103.232 19.4963 102.742 19.3303 102.252C19.3032 102.172 19.2761 102.092 19.2482 102.009C19.193 101.846 19.1378 101.684 19.0826 101.521C18.9402 101.1 18.7984 100.679 18.6567 100.258C18.6279 100.172 18.599 100.087 18.5693 99.9986C18.48 99.7332 18.3907 99.4678 18.3014 99.2024C18.271 99.1121 18.2405 99.0217 18.2092 98.9286C17.7551 97.5792 17.3017 96.2297 16.8485 94.8801C16.7469 94.5776 16.6453 94.2752 16.5437 93.9728C16.1434 92.7812 15.7438 91.5894 15.3451 90.3974C15.2191 90.0209 15.0929 89.6444 14.9665 89.2681C14.8185 88.8273 14.671 88.3864 14.5238 87.9453C14.4697 87.7834 14.4155 87.6216 14.361 87.4598C14.2868 87.2394 14.2133 87.0187 14.1399 86.798C14.1181 86.7337 14.0963 86.6694 14.0738 86.6032C13.9753 86.3046 13.9271 86.0843 13.9271 85.7657Z" fill="white"/>
<path d="M88.4986 79.948C90.942 79.948 93.3854 79.948 95.9029 79.948C95.9029 81.8678 95.9029 83.7877 95.9029 85.7656C96.6172 85.7641 96.6172 85.7641 97.3459 85.7625C97.6468 85.7621 97.9477 85.7617 98.2486 85.7613C98.7266 85.7608 99.2046 85.7602 99.6827 85.759C100.068 85.758 100.453 85.7575 100.838 85.7573C100.986 85.7571 101.133 85.7568 101.28 85.7563C101.486 85.7557 101.691 85.7556 101.897 85.7556C101.958 85.7553 102.02 85.755 102.083 85.7547C102.504 85.7556 102.504 85.7556 102.602 85.8538C102.611 86.0372 102.613 86.2209 102.613 86.4045C102.614 86.4907 102.614 86.4907 102.614 86.5787C102.614 86.7695 102.614 86.9604 102.614 87.1512C102.614 87.2833 102.614 87.4153 102.614 87.5474C102.614 87.8245 102.614 88.1017 102.613 88.3788C102.613 88.7348 102.613 89.0908 102.614 89.4468C102.614 89.7197 102.614 89.9925 102.614 90.2653C102.614 90.3966 102.614 90.5279 102.614 90.6592C102.614 90.8424 102.614 91.0256 102.613 91.2088C102.613 91.3133 102.613 91.4177 102.613 91.5253C102.602 91.7596 102.602 91.7596 102.514 91.8477C102.307 91.8561 102.103 91.8588 101.897 91.8577C101.8 91.8577 101.8 91.8577 101.702 91.8578C101.487 91.8577 101.273 91.857 101.059 91.8563C100.911 91.8562 100.763 91.856 100.615 91.8559C100.224 91.8556 99.8337 91.8547 99.4432 91.8538C99.045 91.8529 98.6468 91.8525 98.2486 91.852C97.4667 91.8511 96.6848 91.8496 95.9029 91.8477C95.9082 93.2392 95.9151 94.6306 95.9237 96.0221C95.9276 96.6682 95.9311 97.3143 95.9334 97.9604C95.9355 98.5237 95.9384 99.087 95.9424 99.6503C95.9445 99.9484 95.9462 100.247 95.9467 100.545C95.9476 100.878 95.9501 101.211 95.9529 101.544C95.9528 101.643 95.9527 101.741 95.9525 101.842C95.9596 102.428 95.9964 102.903 96.3815 103.372C96.8359 103.728 97.205 103.757 97.7687 103.765C97.8763 103.767 97.9839 103.769 98.0948 103.771C98.2101 103.772 98.3255 103.774 98.4443 103.775C98.5642 103.777 98.6842 103.779 98.8041 103.781C99.1187 103.786 99.4333 103.79 99.7479 103.794C100.069 103.799 100.391 103.804 100.712 103.809C101.342 103.818 101.972 103.827 102.602 103.836C102.604 104.627 102.606 105.418 102.607 106.21C102.607 106.577 102.608 106.945 102.609 107.312C102.61 107.667 102.61 108.021 102.61 108.375C102.61 108.511 102.611 108.646 102.611 108.782C102.612 108.971 102.612 109.16 102.612 109.349C102.612 109.457 102.612 109.565 102.613 109.676C102.602 109.918 102.602 109.918 102.514 110.006C102.296 110.015 102.082 110.019 101.864 110.019C101.796 110.019 101.728 110.019 101.658 110.019C101.431 110.02 101.204 110.02 100.977 110.021C100.818 110.021 100.66 110.021 100.502 110.021C100.168 110.022 99.8348 110.022 99.5014 110.022C99.0781 110.022 98.6549 110.023 98.2316 110.025C97.9035 110.026 97.5754 110.026 97.2474 110.026C97.0916 110.026 96.9359 110.026 96.7802 110.027C94.5442 110.036 92.3254 109.827 90.5725 108.29C89.022 106.735 88.4903 104.786 88.4877 102.635C88.4881 102.476 88.4881 102.476 88.4886 102.315C88.4886 102.201 88.4886 102.088 88.4886 101.971C88.4886 101.662 88.4891 101.353 88.4897 101.044C88.4903 100.72 88.4903 100.397 88.4904 100.073C88.4907 99.461 88.4914 98.8492 88.4923 98.2373C88.4933 97.5403 88.4938 96.8432 88.4942 96.1461C88.4951 94.7133 88.4967 93.2805 88.4986 91.8477C88.4502 91.8479 88.4018 91.8481 88.352 91.8483C87.8501 91.8502 87.3483 91.8516 86.8464 91.8525C86.6589 91.853 86.4714 91.8536 86.2839 91.8544C86.015 91.8554 85.7461 91.8559 85.4772 91.8563C85.3507 91.857 85.3507 91.857 85.2215 91.8577C85.1439 91.8577 85.0662 91.8577 84.9863 91.8577C84.8832 91.858 84.8832 91.858 84.7781 91.8583C84.6202 91.8477 84.6202 91.8477 84.5321 91.7596C84.5233 91.5762 84.5208 91.3924 84.5207 91.2088C84.5205 91.1513 84.5204 91.0939 84.5202 91.0347C84.5198 90.8438 84.5201 90.653 84.5204 90.4622C84.5203 90.3301 84.5202 90.198 84.5201 90.0659C84.52 89.7888 84.5202 89.5117 84.5206 89.2345C84.5211 88.8785 84.5208 88.5225 84.5203 88.1665C84.5199 87.8937 84.5201 87.6209 84.5203 87.348C84.5203 87.2167 84.5203 87.0854 84.5201 86.9541C84.5198 86.7709 84.5202 86.5877 84.5207 86.4045C84.5207 86.3001 84.5208 86.1956 84.5209 86.088C84.5321 85.8538 84.5321 85.8538 84.6202 85.7656C84.742 85.7575 84.8642 85.7553 84.9863 85.7556C85.065 85.7556 85.1437 85.7557 85.2248 85.7557C85.3081 85.7561 85.3914 85.7566 85.4772 85.757C85.5534 85.7571 85.6295 85.7572 85.708 85.7573C85.9936 85.7578 86.2793 85.759 86.5649 85.7601C87.2031 85.762 87.8412 85.7638 88.4986 85.7656C88.4986 83.8458 88.4986 81.926 88.4986 79.948Z" fill="white"/>
<path d="M74.3949 50.5073C77.3328 50.5073 80.2707 50.5073 83.2976 50.5073C83.2996 54.1778 83.3012 57.8483 83.3021 61.5187C83.3022 61.9516 83.3024 62.3844 83.3025 62.8173C83.3025 62.9035 83.3025 62.9897 83.3025 63.0784C83.3029 64.4757 83.3036 65.873 83.3044 67.2703C83.3053 68.7029 83.3057 70.1356 83.3059 71.5682C83.306 72.453 83.3064 73.3377 83.3071 74.2225C83.3076 74.8283 83.3078 75.4342 83.3076 76.04C83.3076 76.3901 83.3077 76.7402 83.3081 77.0903C83.3086 77.4102 83.3086 77.7302 83.3083 78.0502C83.3082 78.2219 83.3086 78.3936 83.309 78.5652C83.3088 78.6658 83.3087 78.7664 83.3085 78.87C83.3085 78.9576 83.3085 79.0451 83.3086 79.1353C83.2976 79.331 83.2976 79.331 83.2095 79.4192C80.3007 79.4192 77.3919 79.4192 74.3949 79.4192C74.3949 69.8783 74.3949 60.3374 74.3949 50.5073Z" fill="white"/>
<path d="M81.8579 37.835C83.0164 38.7664 83.8372 40.0161 84.0028 41.5163C84.1106 42.894 83.7531 44.2068 82.9162 45.3134C82.0722 46.2848 80.9084 47.109 79.5955 47.2457C77.9862 47.3356 76.5543 47.0332 75.2929 45.9621C74.2237 44.9213 73.6666 43.6716 73.5985 42.1756C73.614 40.6458 74.1881 39.3763 75.2213 38.2659C77.0404 36.5728 79.8383 36.3361 81.8579 37.835Z" fill="white"/>
</svg>
