<svg width="76" height="76" viewBox="0 0 76 76" fill="none" xmlns="http://www.w3.org/2000/svg">
<path d="M69.5222 2.85508C69.6199 2.86402 69.7176 2.87251 69.8154 2.88087C70.3639 2.92933 70.8847 2.97621 71.3799 3.23403C71.4212 3.25553 71.4626 3.27703 71.5051 3.29918C72.168 3.67242 72.612 4.24073 72.8489 4.96311C72.9642 5.38653 73 5.81467 73.0376 6.25037C73.0488 6.38025 73.0606 6.51006 73.0725 6.63987C73.1411 7.39791 73.1839 8.1556 73.2049 8.91638C73.2077 9.01394 73.2107 9.1115 73.2138 9.20905C73.2417 10.1536 73.2316 11.0969 73.1933 12.041C73.1913 12.0901 73.1893 12.1392 73.1873 12.1898C73.0183 16.3034 72.3326 20.4089 68.6541 31.1391C68.6408 31.169 68.6276 31.1988 68.6139 31.2296C68.4478 31.6024 68.2754 31.972 68.0997 32.3403C68.0702 32.4024 68.0407 32.4645 68.0111 32.5266C67.5722 33.4486 67.1138 34.3563 66.6213 35.251C66.5816 35.3236 66.5816 35.3236 66.5411 35.3976C66.1408 36.1287 65.716 36.843 65.2793 37.5526C65.2005 37.6809 65.1224 37.8096 65.0447 37.9385C64.7209 38.4726 64.3773 38.9932 64.0311 39.513C64.008 39.5478 63.9848 39.5826 63.961 39.6185C63.6241 40.1245 63.2783 40.6236 62.9252 41.1184C62.8802 41.1816 62.8802 41.1816 62.8342 41.2461C62.1631 42.1846 61.4666 43.1039 60.7361 43.9971C60.5443 44.2321 60.3584 44.471 60.1747 44.7125C60.0958 44.8158 60.0154 44.9177 59.9339 45.0189C58.8124 46.4136 58.1093 48.0407 58.0944 49.8503C58.094 49.8957 58.094 49.8957 58.0936 49.9421C58.0914 50.6964 58.2179 51.4334 58.3424 52.1754C58.4576 52.8625 58.5389 53.5514 58.565 54.248C58.5667 54.2906 58.5684 54.3331 58.5702 54.377C58.5747 54.5005 58.5787 54.624 58.5824 54.7476C58.5835 54.7802 58.5845 54.8128 58.5856 54.8464C58.6609 57.4024 58.0772 60.0222 56.873 62.2782C56.8556 62.3112 56.8382 62.3441 56.8203 62.3781C56.428 63.1191 55.961 63.7935 55.4407 64.4497C55.4088 64.4906 55.3768 64.5316 55.3438 64.5738C54.6444 65.4523 53.81 66.2233 53.0152 67.0138C52.8103 67.2176 52.6055 67.4215 52.4008 67.6256C52.32 67.7061 52.239 67.7865 52.158 67.8669C52.108 67.9168 52.0579 67.9667 52.0079 68.0166C51.9432 68.081 51.9432 68.0809 51.8771 68.1466C51.7765 68.2491 51.6817 68.3555 51.5877 68.4642C51.4263 68.6503 51.2563 68.826 51.0823 69.0003C51.0501 69.0328 51.0179 69.0652 50.9847 69.0986C50.8794 69.2047 50.7738 69.3105 50.6682 69.4164C50.6319 69.4529 50.5955 69.4893 50.5581 69.5269C50.366 69.7197 50.1737 69.9124 49.9813 70.105C49.7836 70.303 49.5863 70.5014 49.3891 70.6999C49.2364 70.8534 49.0835 71.0066 48.9304 71.1597C48.8576 71.2327 48.7848 71.3058 48.7122 71.3791C47.8698 72.2281 47.0338 72.8174 45.7964 72.8293C44.8319 72.8321 44.0257 72.5328 43.3333 71.8461C42.9383 71.4379 42.6975 70.9637 42.4584 70.4557C42.421 70.3769 42.3836 70.2982 42.3463 70.2194C42.0203 69.5316 41.7019 68.8405 41.388 68.1472C41.1422 67.6044 40.893 67.0633 40.6421 66.5229C40.6237 66.4832 40.6053 66.4434 40.5863 66.4025C40.5114 66.2413 40.4366 66.0801 40.3618 65.9189C40.1641 65.4929 39.967 65.0666 39.7701 64.6402C39.753 64.6031 39.7359 64.566 39.7182 64.5278C39.4552 63.9579 39.1938 63.3873 38.9333 62.8163C38.6329 62.1581 38.3289 61.5017 38.0232 60.846C37.6765 61.0456 37.3347 61.2507 36.9981 61.4668C36.9552 61.4943 36.9123 61.5217 36.8681 61.5499C36.7294 61.6386 36.5909 61.7274 36.4523 61.8162C36.257 61.9414 36.0616 62.0665 35.8662 62.1916C35.793 62.2385 35.793 62.2385 35.7183 62.2863C35.0527 62.7123 34.3841 63.1334 33.7134 63.5513C33.5072 63.6797 33.3013 63.8084 33.097 63.9398C31.9939 64.6477 30.8387 64.9497 29.5379 64.6763C28.3041 64.3888 27.4783 63.5221 26.6135 62.6549C26.5459 62.5874 26.4784 62.5199 26.4109 62.4523C26.2291 62.2706 26.0475 62.0888 25.866 61.9069C25.6753 61.7159 25.4846 61.5251 25.2938 61.3343C24.933 60.9734 24.5724 60.6124 24.2118 60.2514C23.8019 59.841 23.3919 59.4307 22.9819 59.0205C22.2812 58.3194 21.5807 57.6182 20.8802 56.9169C20.8507 56.8874 20.8212 56.8578 20.7908 56.8274C20.7366 56.7731 20.6824 56.7189 20.6282 56.6646C20.5808 56.6171 20.5333 56.5697 20.4859 56.5223C20.4247 56.4609 20.3637 56.3992 20.3028 56.3376C20.1862 56.2224 20.066 56.1126 19.9441 56.003C19.5847 55.6761 19.2426 55.3322 18.899 54.9888C18.8266 54.9167 18.7542 54.8445 18.6818 54.7724C18.4868 54.578 18.2919 54.3834 18.0971 54.1888C17.9752 54.067 17.8532 53.9452 17.7312 53.8234C17.3488 53.4416 16.9665 53.0598 16.5844 52.6778C16.5406 52.6341 16.4968 52.5903 16.4531 52.5466C16.4314 52.5249 16.4096 52.5032 16.3873 52.4808C16.035 52.1287 15.6823 51.7769 15.3295 51.4252C14.9661 51.0628 14.6028 50.7001 14.2399 50.3372C14.0366 50.134 13.8332 49.9309 13.6295 49.728C13.4381 49.5374 13.2471 49.3464 13.0563 49.1552C12.9864 49.0853 12.9164 49.0155 12.8463 48.9459C12.4007 48.503 12.0046 48.0727 11.7264 47.5028C11.7109 47.4712 11.6954 47.4397 11.6795 47.4072C11.1771 46.3576 11.1514 45.2154 11.5098 44.1215C11.7778 43.4195 12.2209 42.7952 12.6253 42.167C12.7443 41.9817 12.8621 41.7956 12.9796 41.6093C13.0017 41.5742 13.0239 41.5392 13.0467 41.503C13.264 41.1586 13.4795 40.8131 13.6952 40.4676C13.8756 40.1788 14.0566 39.8904 14.2386 39.6025C14.2606 39.5676 14.2826 39.5328 14.3052 39.4969C14.4234 39.3098 14.5421 39.1231 14.6614 38.9367C14.6868 38.8969 14.7122 38.8571 14.7383 38.816C14.7869 38.7399 14.8356 38.6638 14.8845 38.5879C14.9173 38.5364 14.9173 38.5364 14.9507 38.4839C14.9699 38.4539 14.9891 38.424 15.0089 38.3931C15.0682 38.2884 15.1115 38.1816 15.1539 38.0692C14.3133 37.6804 13.4718 37.2939 12.6244 36.92C12.0238 36.6547 11.4267 36.3825 10.8313 36.1057C10.7914 36.0872 10.7516 36.0686 10.7106 36.0496C10.5513 35.9755 10.392 35.9014 10.2327 35.8273C9.84373 35.6464 9.45416 35.467 9.06411 35.2885C9.03137 35.2735 8.99863 35.2585 8.96489 35.2431C8.42044 34.9942 7.87346 34.7512 7.32591 34.5092C6.8101 34.281 6.29729 34.047 5.78676 33.8072C5.75578 33.7927 5.7248 33.7781 5.69288 33.7631C5.5044 33.6745 5.31625 33.5853 5.12841 33.4953C5.07108 33.4679 5.07109 33.4679 5.01261 33.44C4.18104 33.0343 3.61718 32.3133 3.31684 31.453C3.04415 30.4877 3.15175 29.5616 3.59585 28.6679C3.82932 28.264 4.16786 27.9284 4.49705 27.6027C4.53849 27.5613 4.57993 27.5199 4.62263 27.4773C4.71185 27.3882 4.80123 27.2993 4.89071 27.2104C5.03255 27.0696 5.17404 26.9285 5.3155 26.7873C5.53942 26.5639 5.76355 26.3407 5.98778 26.1177C6.38914 25.7184 6.79025 25.3188 7.19111 24.919C7.33146 24.779 7.47194 24.6392 7.61252 24.4995C7.679 24.4333 7.74543 24.3672 7.81184 24.301C7.89235 24.2208 7.97294 24.1406 8.05364 24.0606C8.24887 23.8657 8.43593 23.6671 8.61583 23.458C8.70495 23.3555 8.79881 23.2586 8.89482 23.1625C8.93245 23.1247 8.97008 23.0869 9.00885 23.048C9.04847 23.0085 9.08808 22.969 9.1289 22.9283C9.17063 22.8865 9.21237 22.8447 9.25537 22.8016C9.34319 22.7138 9.43104 22.626 9.51898 22.5383C9.6307 22.4268 9.74222 22.3152 9.85367 22.2034C9.96136 22.0955 10.0692 21.9878 10.1771 21.8801C10.2166 21.8405 10.2561 21.8008 10.2968 21.76C10.5225 21.5352 10.7536 21.3204 10.9959 21.1136C11.0643 21.0534 11.0643 21.0534 11.1341 20.992C13.9878 18.525 17.6597 17.4505 21.391 17.51C21.4313 17.5106 21.4715 17.5111 21.513 17.5117C22.5524 17.5312 23.6047 17.6626 24.6239 17.8654C26.5941 18.2565 28.6251 17.6893 30.2832 16.6037C30.6595 16.3476 31.0169 16.0766 31.349 15.7648C31.5097 15.6194 31.6802 15.4881 31.8514 15.3553C32.0604 15.193 32.2658 15.0269 32.4704 14.8592C32.8202 14.5735 33.177 14.2979 33.5374 14.0256C33.6318 13.9543 33.7261 13.8827 33.8204 13.8111C34.228 13.5024 34.6427 13.205 35.0616 12.912C35.155 12.8463 35.2479 12.7799 35.3406 12.7133C35.8853 12.3226 36.4461 11.9571 37.0086 11.5927C37.1232 11.5183 37.2374 11.4435 37.3514 11.3684C38.2633 10.769 39.2033 10.2128 40.1567 9.68256C40.2871 9.60964 40.4168 9.53565 40.5463 9.46135C41.793 8.74944 43.0758 8.09677 44.3848 7.50733C44.5385 7.43777 44.6917 7.36694 44.8448 7.29589C46.2481 6.64949 47.6953 6.08846 49.1575 5.59026C49.1886 5.57962 49.2197 5.56897 49.2518 5.55801C53.2825 4.17994 57.4512 3.22967 61.701 2.87426C61.8161 2.86445 61.9311 2.85405 62.0462 2.84349C64.5135 2.62003 67.0555 2.62806 69.5222 2.85508ZM42.1742 22.4518C41.3643 23.3439 40.7454 24.3534 40.3794 25.5027C40.3683 25.5368 40.3573 25.571 40.3459 25.6062C39.7056 27.6184 39.9597 29.8072 40.8997 31.6812C41.1074 32.0811 41.3525 32.4456 41.6268 32.8023C41.6584 32.8443 41.6899 32.8862 41.7224 32.9294C42.4236 33.8251 43.2938 34.5516 44.3064 35.0662C44.3406 35.0838 44.3748 35.1014 44.41 35.1196C45.1719 35.5089 45.9531 35.7763 46.8012 35.8978C46.8508 35.9049 46.8508 35.9049 46.9014 35.9122C49.0061 36.2037 51.131 35.6655 52.8269 34.3825C52.8509 34.3641 52.875 34.3458 52.8997 34.327C52.9643 34.278 52.9643 34.278 53.0302 34.2281C54.7483 32.8736 55.7121 30.9303 56.0136 28.7908C56.0279 28.6647 56.0359 28.5401 56.0413 28.4133C56.0432 28.3693 56.0432 28.3693 56.0452 28.3244C56.128 26.0556 55.2849 24.0211 53.7775 22.361C53.7292 22.3076 53.7292 22.3076 53.6799 22.2531C52.3216 20.8279 50.2674 20.0084 48.3214 19.9485C45.9809 19.9024 43.807 20.7635 42.1742 22.4518Z" fill="#07041E"/>
<path d="M69.5222 2.85508C69.6199 2.86402 69.7176 2.87251 69.8154 2.88087C70.3639 2.92933 70.8847 2.97621 71.3799 3.23403C71.4212 3.25553 71.4626 3.27703 71.5051 3.29918C72.168 3.67242 72.612 4.24073 72.8489 4.96311C72.9642 5.38653 73 5.81467 73.0376 6.25037C73.0488 6.38025 73.0606 6.51006 73.0725 6.63987C73.1411 7.39791 73.1839 8.1556 73.2049 8.91638C73.2077 9.01394 73.2107 9.1115 73.2138 9.20905C73.2417 10.1536 73.2316 11.0969 73.1933 12.041C73.1913 12.0901 73.1893 12.1392 73.1873 12.1898C73.0183 16.3034 72.3326 20.4089 68.6541 31.1391C68.6408 31.169 68.6276 31.1988 68.6139 31.2296C68.4478 31.6024 68.2754 31.972 68.0997 32.3403C68.0702 32.4024 68.0407 32.4645 68.0111 32.5266C67.5722 33.4486 67.1138 34.3563 66.6213 35.251C66.5816 35.3236 66.5816 35.3236 66.5411 35.3976C66.1408 36.1287 65.716 36.843 65.2793 37.5526C65.2005 37.6809 65.1224 37.8096 65.0447 37.9385C64.7209 38.4726 64.3773 38.9932 64.0311 39.513C64.008 39.5478 63.9848 39.5826 63.961 39.6185C63.6241 40.1245 63.2783 40.6236 62.9252 41.1184C62.8802 41.1816 62.8802 41.1816 62.8342 41.2461C62.1631 42.1846 61.4666 43.1039 60.7361 43.9971C60.5443 44.2321 60.3584 44.471 60.1747 44.7125C60.0958 44.8158 60.0154 44.9177 59.9339 45.0189C58.8124 46.4136 58.1093 48.0407 58.0944 49.8503C58.094 49.8957 58.094 49.8957 58.0936 49.9421C58.0914 50.6964 58.2179 51.4334 58.3424 52.1754C58.4576 52.8625 58.5389 53.5514 58.565 54.248C58.5667 54.2906 58.5684 54.3331 58.5702 54.377C58.5747 54.5005 58.5787 54.624 58.5824 54.7476C58.5835 54.7802 58.5845 54.8128 58.5856 54.8464C58.6609 57.4024 58.0772 60.0222 56.873 62.2782C56.8556 62.3112 56.8382 62.3441 56.8203 62.3781C56.428 63.1191 55.961 63.7935 55.4407 64.4497C55.4088 64.4906 55.3768 64.5316 55.3438 64.5738C54.6444 65.4523 53.81 66.2233 53.0152 67.0138C52.8103 67.2176 52.6055 67.4215 52.4008 67.6256C52.32 67.7061 52.239 67.7865 52.158 67.8669C52.108 67.9168 52.0579 67.9667 52.0079 68.0166C51.9432 68.081 51.9432 68.0809 51.8771 68.1466C51.7765 68.2491 51.6817 68.3555 51.5877 68.4642C51.4263 68.6503 51.2563 68.826 51.0823 69.0003C51.0501 69.0328 51.0179 69.0652 50.9847 69.0986C50.8794 69.2047 50.7738 69.3105 50.6682 69.4164C50.6319 69.4529 50.5955 69.4893 50.5581 69.5269C50.366 69.7197 50.1737 69.9124 49.9813 70.105C49.7836 70.303 49.5863 70.5014 49.3891 70.6999C49.2364 70.8534 49.0835 71.0066 48.9304 71.1597C48.8576 71.2327 48.7848 71.3058 48.7122 71.3791C47.8698 72.2281 47.0338 72.8174 45.7964 72.8293C44.8319 72.8321 44.0257 72.5328 43.3333 71.8461C42.9383 71.4379 42.6975 70.9637 42.4584 70.4557C42.421 70.3769 42.3836 70.2982 42.3463 70.2194C42.0203 69.5316 41.7019 68.8405 41.388 68.1472C41.1422 67.6044 40.893 67.0633 40.6421 66.5229C40.6237 66.4832 40.6053 66.4434 40.5863 66.4025C40.5114 66.2413 40.4366 66.0801 40.3618 65.9189C40.1641 65.4929 39.967 65.0666 39.7701 64.6402C39.753 64.6031 39.7359 64.566 39.7182 64.5278C39.4552 63.9579 39.1938 63.3873 38.9333 62.8163C38.6329 62.1581 38.3289 61.5017 38.0232 60.846C37.6765 61.0456 37.3347 61.2507 36.9981 61.4668C36.9552 61.4943 36.9123 61.5217 36.8681 61.5499C36.7294 61.6386 36.5909 61.7274 36.4523 61.8162C36.257 61.9414 36.0616 62.0665 35.8662 62.1916C35.793 62.2385 35.793 62.2385 35.7183 62.2863C35.0527 62.7123 34.3841 63.1334 33.7134 63.5513C33.5072 63.6797 33.3013 63.8084 33.097 63.9398C31.9939 64.6477 30.8387 64.9497 29.5379 64.6763C28.3041 64.3888 27.4783 63.5221 26.6135 62.6549C26.5459 62.5874 26.4784 62.5199 26.4109 62.4523C26.2291 62.2706 26.0475 62.0888 25.866 61.9069C25.6753 61.7159 25.4846 61.5251 25.2938 61.3343C24.933 60.9734 24.5724 60.6124 24.2118 60.2514C23.8019 59.841 23.3919 59.4307 22.9819 59.0205C22.2812 58.3194 21.5807 57.6182 20.8802 56.9169C20.8507 56.8874 20.8212 56.8578 20.7908 56.8274C20.7366 56.7731 20.6824 56.7189 20.6282 56.6646C20.5808 56.6171 20.5333 56.5697 20.4859 56.5223C20.4247 56.4609 20.3637 56.3992 20.3028 56.3376C20.1862 56.2224 20.066 56.1126 19.9441 56.003C19.5847 55.6761 19.2426 55.3322 18.899 54.9888C18.8266 54.9167 18.7542 54.8445 18.6818 54.7724C18.4868 54.578 18.2919 54.3834 18.0971 54.1888C17.9752 54.067 17.8532 53.9452 17.7312 53.8234C17.3488 53.4416 16.9665 53.0598 16.5844 52.6778C16.5406 52.6341 16.4968 52.5903 16.4531 52.5466C16.4314 52.5249 16.4096 52.5032 16.3873 52.4808C16.035 52.1287 15.6823 51.7769 15.3295 51.4252C14.9661 51.0628 14.6028 50.7001 14.2399 50.3372C14.0366 50.134 13.8332 49.9309 13.6295 49.728C13.4381 49.5374 13.2471 49.3464 13.0563 49.1552C12.9864 49.0853 12.9164 49.0155 12.8463 48.9459C12.4007 48.503 12.0046 48.0727 11.7264 47.5028C11.7109 47.4712 11.6954 47.4397 11.6795 47.4072C11.1771 46.3576 11.1514 45.2154 11.5098 44.1215C11.7778 43.4195 12.2209 42.7952 12.6253 42.167C12.7443 41.9817 12.8621 41.7956 12.9796 41.6093C13.0017 41.5742 13.0239 41.5392 13.0467 41.503C13.264 41.1586 13.4795 40.8131 13.6952 40.4676C13.8756 40.1788 14.0566 39.8904 14.2386 39.6025C14.2606 39.5676 14.2826 39.5328 14.3052 39.4969C14.4234 39.3098 14.5421 39.1231 14.6614 38.9367C14.6868 38.8969 14.7122 38.8571 14.7383 38.816C14.7869 38.7399 14.8356 38.6638 14.8845 38.5879C14.9173 38.5364 14.9173 38.5364 14.9507 38.4839C14.9699 38.4539 14.9891 38.424 15.0089 38.3931C15.0682 38.2884 15.1115 38.1816 15.1539 38.0692C14.3133 37.6804 13.4718 37.2939 12.6244 36.92C12.0238 36.6547 11.4267 36.3825 10.8313 36.1057C10.7914 36.0872 10.7516 36.0686 10.7106 36.0496C10.5513 35.9755 10.392 35.9014 10.2327 35.8273C9.84373 35.6464 9.45416 35.467 9.06411 35.2885C9.03137 35.2735 8.99863 35.2585 8.96489 35.2431C8.42044 34.9942 7.87346 34.7512 7.32591 34.5092C6.8101 34.281 6.29729 34.047 5.78676 33.8072C5.75578 33.7927 5.7248 33.7781 5.69288 33.7631C5.5044 33.6745 5.31625 33.5853 5.12841 33.4953C5.07108 33.4679 5.07109 33.4679 5.01261 33.44C4.18104 33.0343 3.61718 32.3133 3.31684 31.453C3.04415 30.4877 3.15175 29.5616 3.59585 28.6679C3.82932 28.264 4.16786 27.9284 4.49705 27.6027C4.53849 27.5613 4.57993 27.5199 4.62263 27.4773C4.71185 27.3882 4.80123 27.2993 4.89071 27.2104C5.03255 27.0696 5.17404 26.9285 5.3155 26.7873C5.53942 26.5639 5.76355 26.3407 5.98778 26.1177C6.38914 25.7184 6.79025 25.3188 7.19111 24.919C7.33146 24.779 7.47194 24.6392 7.61252 24.4995C7.679 24.4333 7.74543 24.3672 7.81184 24.301C7.89235 24.2208 7.97294 24.1406 8.05364 24.0606C8.24887 23.8657 8.43593 23.6671 8.61583 23.458C8.70495 23.3555 8.79881 23.2586 8.89482 23.1625C8.93245 23.1247 8.97008 23.0869 9.00885 23.048C9.04847 23.0085 9.08808 22.969 9.1289 22.9283C9.17063 22.8865 9.21237 22.8447 9.25537 22.8016C9.34319 22.7138 9.43104 22.626 9.51898 22.5383C9.6307 22.4268 9.74222 22.3152 9.85367 22.2034C9.96136 22.0955 10.0692 21.9878 10.1771 21.8801C10.2166 21.8405 10.2561 21.8008 10.2968 21.76C10.5225 21.5352 10.7536 21.3204 10.9959 21.1136C11.0643 21.0534 11.0643 21.0534 11.1341 20.992C13.9878 18.525 17.6597 17.4505 21.391 17.51C21.4313 17.5106 21.4715 17.5111 21.513 17.5117C22.5524 17.5312 23.6047 17.6626 24.6239 17.8654C26.5941 18.2565 28.6251 17.6893 30.2832 16.6037C30.6595 16.3476 31.0169 16.0766 31.349 15.7648C31.5097 15.6194 31.6802 15.4881 31.8514 15.3553C32.0604 15.193 32.2658 15.0269 32.4704 14.8592C32.8202 14.5735 33.177 14.2979 33.5374 14.0256C33.6318 13.9543 33.7261 13.8827 33.8204 13.8111C34.228 13.5024 34.6427 13.205 35.0616 12.912C35.155 12.8463 35.2479 12.7799 35.3406 12.7133C35.8853 12.3226 36.4461 11.9571 37.0086 11.5927C37.1232 11.5183 37.2374 11.4435 37.3514 11.3684C38.2633 10.769 39.2033 10.2128 40.1567 9.68256C40.2871 9.60964 40.4168 9.53565 40.5463 9.46135C41.793 8.74944 43.0758 8.09677 44.3848 7.50733C44.5385 7.43777 44.6917 7.36694 44.8448 7.29589C46.2481 6.64949 47.6953 6.08846 49.1575 5.59026C49.1886 5.57962 49.2197 5.56897 49.2518 5.55801C53.2825 4.17994 57.4512 3.22967 61.701 2.87426C61.8161 2.86445 61.9311 2.85405 62.0462 2.84349C64.5135 2.62003 67.0555 2.62806 69.5222 2.85508ZM42.1742 22.4518C41.3643 23.3439 40.7454 24.3534 40.3794 25.5027C40.3683 25.5368 40.3573 25.571 40.3459 25.6062C39.7056 27.6184 39.9597 29.8072 40.8997 31.6812C41.1074 32.0811 41.3525 32.4456 41.6268 32.8023C41.6584 32.8443 41.6899 32.8862 41.7224 32.9294C42.4236 33.8251 43.2938 34.5516 44.3064 35.0662C44.3406 35.0838 44.3748 35.1014 44.41 35.1196C45.1719 35.5089 45.9531 35.7763 46.8012 35.8978C46.8508 35.9049 46.8508 35.9049 46.9014 35.9122C49.0061 36.2037 51.131 35.6655 52.8269 34.3825C52.8509 34.3641 52.875 34.3458 52.8997 34.327C52.9643 34.278 52.9643 34.278 53.0302 34.2281C54.7483 32.8736 55.7121 30.9303 56.0136 28.7908C56.0279 28.6647 56.0359 28.5401 56.0413 28.4133C56.0432 28.3693 56.0432 28.3693 56.0452 28.3244C56.128 26.0556 55.2849 24.0211 53.7775 22.361C53.7292 22.3076 53.7292 22.3076 53.6799 22.2531C52.3216 20.8279 50.2674 20.0084 48.3214 19.9485C45.9809 19.9024 43.807 20.7635 42.1742 22.4518Z" fill="black" fill-opacity="0.2"/>
<path d="M69.5222 2.85508C69.6199 2.86402 69.7176 2.87251 69.8154 2.88087C70.3639 2.92933 70.8847 2.97621 71.3799 3.23403C71.4212 3.25553 71.4626 3.27703 71.5051 3.29918C72.168 3.67242 72.612 4.24073 72.8489 4.96311C72.9642 5.38653 73 5.81467 73.0376 6.25037C73.0488 6.38025 73.0606 6.51006 73.0725 6.63987C73.1411 7.39791 73.1839 8.1556 73.2049 8.91638C73.2077 9.01394 73.2107 9.1115 73.2138 9.20905C73.2417 10.1536 73.2316 11.0969 73.1933 12.041C73.1913 12.0901 73.1893 12.1392 73.1873 12.1898C73.0183 16.3034 72.3326 20.4089 68.6541 31.1391C68.6408 31.169 68.6276 31.1988 68.6139 31.2296C68.4478 31.6024 68.2754 31.972 68.0997 32.3403C68.0702 32.4024 68.0407 32.4645 68.0111 32.5266C67.5722 33.4486 67.1138 34.3563 66.6213 35.251C66.5816 35.3236 66.5816 35.3236 66.5411 35.3976C66.1408 36.1287 65.716 36.843 65.2793 37.5526C65.2005 37.6809 65.1224 37.8096 65.0447 37.9385C64.7209 38.4726 64.3773 38.9932 64.0311 39.513C64.008 39.5478 63.9848 39.5826 63.961 39.6185C63.6241 40.1245 63.2783 40.6236 62.9252 41.1184C62.8802 41.1816 62.8802 41.1816 62.8342 41.2461C62.1631 42.1846 61.4666 43.1039 60.7361 43.9971C60.5443 44.2321 60.3584 44.471 60.1747 44.7125C60.0958 44.8158 60.0154 44.9177 59.9339 45.0189C58.8124 46.4136 58.1093 48.0407 58.0944 49.8503C58.094 49.8957 58.094 49.8957 58.0936 49.9421C58.0914 50.6964 58.2179 51.4334 58.3424 52.1754C58.4576 52.8625 58.5389 53.5514 58.565 54.248C58.5667 54.2906 58.5684 54.3331 58.5702 54.377C58.5747 54.5005 58.5787 54.624 58.5824 54.7476C58.5835 54.7802 58.5845 54.8128 58.5856 54.8464C58.6609 57.4024 58.0772 60.0222 56.873 62.2782C56.8556 62.3112 56.8382 62.3441 56.8203 62.3781C56.428 63.1191 55.961 63.7935 55.4407 64.4497C55.4088 64.4906 55.3768 64.5316 55.3438 64.5738C54.6444 65.4523 53.81 66.2233 53.0152 67.0138C52.8103 67.2176 52.6055 67.4215 52.4008 67.6256C52.32 67.7061 52.239 67.7865 52.158 67.8669C52.108 67.9168 52.0579 67.9667 52.0079 68.0166C51.9432 68.081 51.9432 68.0809 51.8771 68.1466C51.7765 68.2491 51.6817 68.3555 51.5877 68.4642C51.4263 68.6503 51.2563 68.826 51.0823 69.0003C51.0501 69.0328 51.0179 69.0652 50.9847 69.0986C50.8794 69.2047 50.7738 69.3105 50.6682 69.4164C50.6319 69.4529 50.5955 69.4893 50.5581 69.5269C50.366 69.7197 50.1737 69.9124 49.9813 70.105C49.7836 70.303 49.5863 70.5014 49.3891 70.6999C49.2364 70.8534 49.0835 71.0066 48.9304 71.1597C48.8576 71.2327 48.7848 71.3058 48.7122 71.3791C47.8698 72.2281 47.0338 72.8174 45.7964 72.8293C44.8319 72.8321 44.0257 72.5328 43.3333 71.8461C42.9383 71.4379 42.6975 70.9637 42.4584 70.4557C42.421 70.3769 42.3836 70.2982 42.3463 70.2194C42.0203 69.5316 41.7019 68.8405 41.388 68.1472C41.1422 67.6044 40.893 67.0633 40.6421 66.5229C40.6237 66.4832 40.6053 66.4434 40.5863 66.4025C40.5114 66.2413 40.4366 66.0801 40.3618 65.9189C40.1641 65.4929 39.967 65.0666 39.7701 64.6402C39.753 64.6031 39.7359 64.566 39.7182 64.5278C39.4552 63.9579 39.1938 63.3873 38.9333 62.8163C38.6329 62.1581 38.3289 61.5017 38.0232 60.846C37.6765 61.0456 37.3347 61.2507 36.9981 61.4668C36.9552 61.4943 36.9123 61.5217 36.8681 61.5499C36.7294 61.6386 36.5909 61.7274 36.4523 61.8162C36.257 61.9414 36.0616 62.0665 35.8662 62.1916C35.793 62.2385 35.793 62.2385 35.7183 62.2863C35.0527 62.7123 34.3841 63.1334 33.7134 63.5513C33.5072 63.6797 33.3013 63.8084 33.097 63.9398C31.9939 64.6477 30.8387 64.9497 29.5379 64.6763C28.3041 64.3888 27.4783 63.5221 26.6135 62.6549C26.5459 62.5874 26.4784 62.5199 26.4109 62.4523C26.2291 62.2706 26.0475 62.0888 25.866 61.9069C25.6753 61.7159 25.4846 61.5251 25.2938 61.3343C24.933 60.9734 24.5724 60.6124 24.2118 60.2514C23.8019 59.841 23.3919 59.4307 22.9819 59.0205C22.2812 58.3194 21.5807 57.6182 20.8802 56.9169C20.8507 56.8874 20.8212 56.8578 20.7908 56.8274C20.7366 56.7731 20.6824 56.7189 20.6282 56.6646C20.5808 56.6171 20.5333 56.5697 20.4859 56.5223C20.4247 56.4609 20.3637 56.3992 20.3028 56.3376C20.1862 56.2224 20.066 56.1126 19.9441 56.003C19.5847 55.6761 19.2426 55.3322 18.899 54.9888C18.8266 54.9167 18.7542 54.8445 18.6818 54.7724C18.4868 54.578 18.2919 54.3834 18.0971 54.1888C17.9752 54.067 17.8532 53.9452 17.7312 53.8234C17.3488 53.4416 16.9665 53.0598 16.5844 52.6778C16.5406 52.6341 16.4968 52.5903 16.4531 52.5466C16.4314 52.5249 16.4096 52.5032 16.3873 52.4808C16.035 52.1287 15.6823 51.7769 15.3295 51.4252C14.9661 51.0628 14.6028 50.7001 14.2399 50.3372C14.0366 50.134 13.8332 49.9309 13.6295 49.728C13.4381 49.5374 13.2471 49.3464 13.0563 49.1552C12.9864 49.0853 12.9164 49.0155 12.8463 48.9459C12.4007 48.503 12.0046 48.0727 11.7264 47.5028C11.7109 47.4712 11.6954 47.4397 11.6795 47.4072C11.1771 46.3576 11.1514 45.2154 11.5098 44.1215C11.7778 43.4195 12.2209 42.7952 12.6253 42.167C12.7443 41.9817 12.8621 41.7956 12.9796 41.6093C13.0017 41.5742 13.0239 41.5392 13.0467 41.503C13.264 41.1586 13.4795 40.8131 13.6952 40.4676C13.8756 40.1788 14.0566 39.8904 14.2386 39.6025C14.2606 39.5676 14.2826 39.5328 14.3052 39.4969C14.4234 39.3098 14.5421 39.1231 14.6614 38.9367C14.6868 38.8969 14.7122 38.8571 14.7383 38.816C14.7869 38.7399 14.8356 38.6638 14.8845 38.5879C14.9173 38.5364 14.9173 38.5364 14.9507 38.4839C14.9699 38.4539 14.9891 38.424 15.0089 38.3931C15.0682 38.2884 15.1115 38.1816 15.1539 38.0692C14.3133 37.6804 13.4718 37.2939 12.6244 36.92C12.0238 36.6547 11.4267 36.3825 10.8313 36.1057C10.7914 36.0872 10.7516 36.0686 10.7106 36.0496C10.5513 35.9755 10.392 35.9014 10.2327 35.8273C9.84373 35.6464 9.45416 35.467 9.06411 35.2885C9.03137 35.2735 8.99863 35.2585 8.96489 35.2431C8.42044 34.9942 7.87346 34.7512 7.32591 34.5092C6.8101 34.281 6.29729 34.047 5.78676 33.8072C5.75578 33.7927 5.7248 33.7781 5.69288 33.7631C5.5044 33.6745 5.31625 33.5853 5.12841 33.4953C5.07108 33.4679 5.07109 33.4679 5.01261 33.44C4.18104 33.0343 3.61718 32.3133 3.31684 31.453C3.04415 30.4877 3.15175 29.5616 3.59585 28.6679C3.82932 28.264 4.16786 27.9284 4.49705 27.6027C4.53849 27.5613 4.57993 27.5199 4.62263 27.4773C4.71185 27.3882 4.80123 27.2993 4.89071 27.2104C5.03255 27.0696 5.17404 26.9285 5.3155 26.7873C5.53942 26.5639 5.76355 26.3407 5.98778 26.1177C6.38914 25.7184 6.79025 25.3188 7.19111 24.919C7.33146 24.779 7.47194 24.6392 7.61252 24.4995C7.679 24.4333 7.74543 24.3672 7.81184 24.301C7.89235 24.2208 7.97294 24.1406 8.05364 24.0606C8.24887 23.8657 8.43593 23.6671 8.61583 23.458C8.70495 23.3555 8.79881 23.2586 8.89482 23.1625C8.93245 23.1247 8.97008 23.0869 9.00885 23.048C9.04847 23.0085 9.08808 22.969 9.1289 22.9283C9.17063 22.8865 9.21237 22.8447 9.25537 22.8016C9.34319 22.7138 9.43104 22.626 9.51898 22.5383C9.6307 22.4268 9.74222 22.3152 9.85367 22.2034C9.96136 22.0955 10.0692 21.9878 10.1771 21.8801C10.2166 21.8405 10.2561 21.8008 10.2968 21.76C10.5225 21.5352 10.7536 21.3204 10.9959 21.1136C11.0643 21.0534 11.0643 21.0534 11.1341 20.992C13.9878 18.525 17.6597 17.4505 21.391 17.51C21.4313 17.5106 21.4715 17.5111 21.513 17.5117C22.5524 17.5312 23.6047 17.6626 24.6239 17.8654C26.5941 18.2565 28.6251 17.6893 30.2832 16.6037C30.6595 16.3476 31.0169 16.0766 31.349 15.7648C31.5097 15.6194 31.6802 15.4881 31.8514 15.3553C32.0604 15.193 32.2658 15.0269 32.4704 14.8592C32.8202 14.5735 33.177 14.2979 33.5374 14.0256C33.6318 13.9543 33.7261 13.8827 33.8204 13.8111C34.228 13.5024 34.6427 13.205 35.0616 12.912C35.155 12.8463 35.2479 12.7799 35.3406 12.7133C35.8853 12.3226 36.4461 11.9571 37.0086 11.5927C37.1232 11.5183 37.2374 11.4435 37.3514 11.3684C38.2633 10.769 39.2033 10.2128 40.1567 9.68256C40.2871 9.60964 40.4168 9.53565 40.5463 9.46135C41.793 8.74944 43.0758 8.09677 44.3848 7.50733C44.5385 7.43777 44.6917 7.36694 44.8448 7.29589C46.2481 6.64949 47.6953 6.08846 49.1575 5.59026C49.1886 5.57962 49.2197 5.56897 49.2518 5.55801C53.2825 4.17994 57.4512 3.22967 61.701 2.87426C61.8161 2.86445 61.9311 2.85405 62.0462 2.84349C64.5135 2.62003 67.0555 2.62806 69.5222 2.85508ZM42.1742 22.4518C41.3643 23.3439 40.7454 24.3534 40.3794 25.5027C40.3683 25.5368 40.3573 25.571 40.3459 25.6062C39.7056 27.6184 39.9597 29.8072 40.8997 31.6812C41.1074 32.0811 41.3525 32.4456 41.6268 32.8023C41.6584 32.8443 41.6899 32.8862 41.7224 32.9294C42.4236 33.8251 43.2938 34.5516 44.3064 35.0662C44.3406 35.0838 44.3748 35.1014 44.41 35.1196C45.1719 35.5089 45.9531 35.7763 46.8012 35.8978C46.8508 35.9049 46.8508 35.9049 46.9014 35.9122C49.0061 36.2037 51.131 35.6655 52.8269 34.3825C52.8509 34.3641 52.875 34.3458 52.8997 34.327C52.9643 34.278 52.9643 34.278 53.0302 34.2281C54.7483 32.8736 55.7121 30.9303 56.0136 28.7908C56.0279 28.6647 56.0359 28.5401 56.0413 28.4133C56.0432 28.3693 56.0432 28.3693 56.0452 28.3244C56.128 26.0556 55.2849 24.0211 53.7775 22.361C53.7292 22.3076 53.7292 22.3076 53.6799 22.2531C52.3216 20.8279 50.2674 20.0084 48.3214 19.9485C45.9809 19.9024 43.807 20.7635 42.1742 22.4518Z" fill="black" fill-opacity="0.2"/>
<path d="M69.5222 2.85508C69.6199 2.86402 69.7176 2.87251 69.8154 2.88087C70.3639 2.92933 70.8847 2.97621 71.3799 3.23403C71.4212 3.25553 71.4626 3.27703 71.5051 3.29918C72.168 3.67242 72.612 4.24073 72.8489 4.96311C72.9642 5.38653 73 5.81467 73.0376 6.25037C73.0488 6.38025 73.0606 6.51006 73.0725 6.63987C73.1411 7.39791 73.1839 8.1556 73.2049 8.91638C73.2077 9.01394 73.2107 9.1115 73.2138 9.20905C73.2417 10.1536 73.2316 11.0969 73.1933 12.041C73.1913 12.0901 73.1893 12.1392 73.1873 12.1898C73.0183 16.3034 72.3326 20.4089 68.6541 31.1391C68.6408 31.169 68.6276 31.1988 68.6139 31.2296C68.4478 31.6024 68.2754 31.972 68.0997 32.3403C68.0702 32.4024 68.0407 32.4645 68.0111 32.5266C67.5722 33.4486 67.1138 34.3563 66.6213 35.251C66.5816 35.3236 66.5816 35.3236 66.5411 35.3976C66.1408 36.1287 65.716 36.843 65.2793 37.5526C65.2005 37.6809 65.1224 37.8096 65.0447 37.9385C64.7209 38.4726 64.3773 38.9932 64.0311 39.513C64.008 39.5478 63.9848 39.5826 63.961 39.6185C63.6241 40.1245 63.2783 40.6236 62.9252 41.1184C62.8802 41.1816 62.8802 41.1816 62.8342 41.2461C62.1631 42.1846 61.4666 43.1039 60.7361 43.9971C60.5443 44.2321 60.3584 44.471 60.1747 44.7125C60.0958 44.8158 60.0154 44.9177 59.9339 45.0189C58.8124 46.4136 58.1093 48.0407 58.0944 49.8503C58.094 49.8957 58.094 49.8957 58.0936 49.9421C58.0914 50.6964 58.2179 51.4334 58.3424 52.1754C58.4576 52.8625 58.5389 53.5514 58.565 54.248C58.5667 54.2906 58.5684 54.3331 58.5702 54.377C58.5747 54.5005 58.5787 54.624 58.5824 54.7476C58.5835 54.7802 58.5845 54.8128 58.5856 54.8464C58.6609 57.4024 58.0772 60.0222 56.873 62.2782C56.8556 62.3112 56.8382 62.3441 56.8203 62.3781C56.428 63.1191 55.961 63.7935 55.4407 64.4497C55.4088 64.4906 55.3768 64.5316 55.3438 64.5738C54.6444 65.4523 53.81 66.2233 53.0152 67.0138C52.8103 67.2176 52.6055 67.4215 52.4008 67.6256C52.32 67.7061 52.239 67.7865 52.158 67.8669C52.108 67.9168 52.0579 67.9667 52.0079 68.0166C51.9432 68.081 51.9432 68.0809 51.8771 68.1466C51.7765 68.2491 51.6817 68.3555 51.5877 68.4642C51.4263 68.6503 51.2563 68.826 51.0823 69.0003C51.0501 69.0328 51.0179 69.0652 50.9847 69.0986C50.8794 69.2047 50.7738 69.3105 50.6682 69.4164C50.6319 69.4529 50.5955 69.4893 50.5581 69.5269C50.366 69.7197 50.1737 69.9124 49.9813 70.105C49.7836 70.303 49.5863 70.5014 49.3891 70.6999C49.2364 70.8534 49.0835 71.0066 48.9304 71.1597C48.8576 71.2327 48.7848 71.3058 48.7122 71.3791C47.8698 72.2281 47.0338 72.8174 45.7964 72.8293C44.8319 72.8321 44.0257 72.5328 43.3333 71.8461C42.9383 71.4379 42.6975 70.9637 42.4584 70.4557C42.421 70.3769 42.3836 70.2982 42.3463 70.2194C42.0203 69.5316 41.7019 68.8405 41.388 68.1472C41.1422 67.6044 40.893 67.0633 40.6421 66.5229C40.6237 66.4832 40.6053 66.4434 40.5863 66.4025C40.5114 66.2413 40.4366 66.0801 40.3618 65.9189C40.1641 65.4929 39.967 65.0666 39.7701 64.6402C39.753 64.6031 39.7359 64.566 39.7182 64.5278C39.4552 63.9579 39.1938 63.3873 38.9333 62.8163C38.6329 62.1581 38.3289 61.5017 38.0232 60.846C37.6765 61.0456 37.3347 61.2507 36.9981 61.4668C36.9552 61.4943 36.9123 61.5217 36.8681 61.5499C36.7294 61.6386 36.5909 61.7274 36.4523 61.8162C36.257 61.9414 36.0616 62.0665 35.8662 62.1916C35.793 62.2385 35.793 62.2385 35.7183 62.2863C35.0527 62.7123 34.3841 63.1334 33.7134 63.5513C33.5072 63.6797 33.3013 63.8084 33.097 63.9398C31.9939 64.6477 30.8387 64.9497 29.5379 64.6763C28.3041 64.3888 27.4783 63.5221 26.6135 62.6549C26.5459 62.5874 26.4784 62.5199 26.4109 62.4523C26.2291 62.2706 26.0475 62.0888 25.866 61.9069C25.6753 61.7159 25.4846 61.5251 25.2938 61.3343C24.933 60.9734 24.5724 60.6124 24.2118 60.2514C23.8019 59.841 23.3919 59.4307 22.9819 59.0205C22.2812 58.3194 21.5807 57.6182 20.8802 56.9169C20.8507 56.8874 20.8212 56.8578 20.7908 56.8274C20.7366 56.7731 20.6824 56.7189 20.6282 56.6646C20.5808 56.6171 20.5333 56.5697 20.4859 56.5223C20.4247 56.4609 20.3637 56.3992 20.3028 56.3376C20.1862 56.2224 20.066 56.1126 19.9441 56.003C19.5847 55.6761 19.2426 55.3322 18.899 54.9888C18.8266 54.9167 18.7542 54.8445 18.6818 54.7724C18.4868 54.578 18.2919 54.3834 18.0971 54.1888C17.9752 54.067 17.8532 53.9452 17.7312 53.8234C17.3488 53.4416 16.9665 53.0598 16.5844 52.6778C16.5406 52.6341 16.4968 52.5903 16.4531 52.5466C16.4314 52.5249 16.4096 52.5032 16.3873 52.4808C16.035 52.1287 15.6823 51.7769 15.3295 51.4252C14.9661 51.0628 14.6028 50.7001 14.2399 50.3372C14.0366 50.134 13.8332 49.9309 13.6295 49.728C13.4381 49.5374 13.2471 49.3464 13.0563 49.1552C12.9864 49.0853 12.9164 49.0155 12.8463 48.9459C12.4007 48.503 12.0046 48.0727 11.7264 47.5028C11.7109 47.4712 11.6954 47.4397 11.6795 47.4072C11.1771 46.3576 11.1514 45.2154 11.5098 44.1215C11.7778 43.4195 12.2209 42.7952 12.6253 42.167C12.7443 41.9817 12.8621 41.7956 12.9796 41.6093C13.0017 41.5742 13.0239 41.5392 13.0467 41.503C13.264 41.1586 13.4795 40.8131 13.6952 40.4676C13.8756 40.1788 14.0566 39.8904 14.2386 39.6025C14.2606 39.5676 14.2826 39.5328 14.3052 39.4969C14.4234 39.3098 14.5421 39.1231 14.6614 38.9367C14.6868 38.8969 14.7122 38.8571 14.7383 38.816C14.7869 38.7399 14.8356 38.6638 14.8845 38.5879C14.9173 38.5364 14.9173 38.5364 14.9507 38.4839C14.9699 38.4539 14.9891 38.424 15.0089 38.3931C15.0682 38.2884 15.1115 38.1816 15.1539 38.0692C14.3133 37.6804 13.4718 37.2939 12.6244 36.92C12.0238 36.6547 11.4267 36.3825 10.8313 36.1057C10.7914 36.0872 10.7516 36.0686 10.7106 36.0496C10.5513 35.9755 10.392 35.9014 10.2327 35.8273C9.84373 35.6464 9.45416 35.467 9.06411 35.2885C9.03137 35.2735 8.99863 35.2585 8.96489 35.2431C8.42044 34.9942 7.87346 34.7512 7.32591 34.5092C6.8101 34.281 6.29729 34.047 5.78676 33.8072C5.75578 33.7927 5.7248 33.7781 5.69288 33.7631C5.5044 33.6745 5.31625 33.5853 5.12841 33.4953C5.07108 33.4679 5.07109 33.4679 5.01261 33.44C4.18104 33.0343 3.61718 32.3133 3.31684 31.453C3.04415 30.4877 3.15175 29.5616 3.59585 28.6679C3.82932 28.264 4.16786 27.9284 4.49705 27.6027C4.53849 27.5613 4.57993 27.5199 4.62263 27.4773C4.71185 27.3882 4.80123 27.2993 4.89071 27.2104C5.03255 27.0696 5.17404 26.9285 5.3155 26.7873C5.53942 26.5639 5.76355 26.3407 5.98778 26.1177C6.38914 25.7184 6.79025 25.3188 7.19111 24.919C7.33146 24.779 7.47194 24.6392 7.61252 24.4995C7.679 24.4333 7.74543 24.3672 7.81184 24.301C7.89235 24.2208 7.97294 24.1406 8.05364 24.0606C8.24887 23.8657 8.43593 23.6671 8.61583 23.458C8.70495 23.3555 8.79881 23.2586 8.89482 23.1625C8.93245 23.1247 8.97008 23.0869 9.00885 23.048C9.04847 23.0085 9.08808 22.969 9.1289 22.9283C9.17063 22.8865 9.21237 22.8447 9.25537 22.8016C9.34319 22.7138 9.43104 22.626 9.51898 22.5383C9.6307 22.4268 9.74222 22.3152 9.85367 22.2034C9.96136 22.0955 10.0692 21.9878 10.1771 21.8801C10.2166 21.8405 10.2561 21.8008 10.2968 21.76C10.5225 21.5352 10.7536 21.3204 10.9959 21.1136C11.0643 21.0534 11.0643 21.0534 11.1341 20.992C13.9878 18.525 17.6597 17.4505 21.391 17.51C21.4313 17.5106 21.4715 17.5111 21.513 17.5117C22.5524 17.5312 23.6047 17.6626 24.6239 17.8654C26.5941 18.2565 28.6251 17.6893 30.2832 16.6037C30.6595 16.3476 31.0169 16.0766 31.349 15.7648C31.5097 15.6194 31.6802 15.4881 31.8514 15.3553C32.0604 15.193 32.2658 15.0269 32.4704 14.8592C32.8202 14.5735 33.177 14.2979 33.5374 14.0256C33.6318 13.9543 33.7261 13.8827 33.8204 13.8111C34.228 13.5024 34.6427 13.205 35.0616 12.912C35.155 12.8463 35.2479 12.7799 35.3406 12.7133C35.8853 12.3226 36.4461 11.9571 37.0086 11.5927C37.1232 11.5183 37.2374 11.4435 37.3514 11.3684C38.2633 10.769 39.2033 10.2128 40.1567 9.68256C40.2871 9.60964 40.4168 9.53565 40.5463 9.46135C41.793 8.74944 43.0758 8.09677 44.3848 7.50733C44.5385 7.43777 44.6917 7.36694 44.8448 7.29589C46.2481 6.64949 47.6953 6.08846 49.1575 5.59026C49.1886 5.57962 49.2197 5.56897 49.2518 5.55801C53.2825 4.17994 57.4512 3.22967 61.701 2.87426C61.8161 2.86445 61.9311 2.85405 62.0462 2.84349C64.5135 2.62003 67.0555 2.62806 69.5222 2.85508ZM42.1742 22.4518C41.3643 23.3439 40.7454 24.3534 40.3794 25.5027C40.3683 25.5368 40.3573 25.571 40.3459 25.6062C39.7056 27.6184 39.9597 29.8072 40.8997 31.6812C41.1074 32.0811 41.3525 32.4456 41.6268 32.8023C41.6584 32.8443 41.6899 32.8862 41.7224 32.9294C42.4236 33.8251 43.2938 34.5516 44.3064 35.0662C44.3406 35.0838 44.3748 35.1014 44.41 35.1196C45.1719 35.5089 45.9531 35.7763 46.8012 35.8978C46.8508 35.9049 46.8508 35.9049 46.9014 35.9122C49.0061 36.2037 51.131 35.6655 52.8269 34.3825C52.8509 34.3641 52.875 34.3458 52.8997 34.327C52.9643 34.278 52.9643 34.278 53.0302 34.2281C54.7483 32.8736 55.7121 30.9303 56.0136 28.7908C56.0279 28.6647 56.0359 28.5401 56.0413 28.4133C56.0432 28.3693 56.0432 28.3693 56.0452 28.3244C56.128 26.0556 55.2849 24.0211 53.7775 22.361C53.7292 22.3076 53.7292 22.3076 53.6799 22.2531C52.3216 20.8279 50.2674 20.0084 48.3214 19.9485C45.9809 19.9024 43.807 20.7635 42.1742 22.4518Z" fill="black" fill-opacity="0.2"/>
<path d="M69.5222 2.85508C69.6199 2.86402 69.7176 2.87251 69.8154 2.88087C70.3639 2.92933 70.8847 2.97621 71.3799 3.23403C71.4212 3.25553 71.4626 3.27703 71.5051 3.29918C72.168 3.67242 72.612 4.24073 72.8489 4.96311C72.9642 5.38653 73 5.81467 73.0376 6.25037C73.0488 6.38025 73.0606 6.51006 73.0725 6.63987C73.1411 7.39791 73.1839 8.1556 73.2049 8.91638C73.2077 9.01394 73.2107 9.1115 73.2138 9.20905C73.2417 10.1536 73.2316 11.0969 73.1933 12.041C73.1913 12.0901 73.1893 12.1392 73.1873 12.1898C73.0183 16.3034 72.3326 20.4089 68.6541 31.1391C68.6408 31.169 68.6276 31.1988 68.6139 31.2296C68.4478 31.6024 68.2754 31.972 68.0997 32.3403C68.0702 32.4024 68.0407 32.4645 68.0111 32.5266C67.5722 33.4486 67.1138 34.3563 66.6213 35.251C66.5816 35.3236 66.5816 35.3236 66.5411 35.3976C66.1408 36.1287 65.716 36.843 65.2793 37.5526C65.2005 37.6809 65.1224 37.8096 65.0447 37.9385C64.7209 38.4726 64.3773 38.9932 64.0311 39.513C64.008 39.5478 63.9848 39.5826 63.961 39.6185C63.6241 40.1245 63.2783 40.6236 62.9252 41.1184C62.8802 41.1816 62.8802 41.1816 62.8342 41.2461C62.1631 42.1846 61.4666 43.1039 60.7361 43.9971C60.5443 44.2321 60.3584 44.471 60.1747 44.7125C60.0958 44.8158 60.0154 44.9177 59.9339 45.0189C58.8124 46.4136 58.1093 48.0407 58.0944 49.8503C58.094 49.8957 58.094 49.8957 58.0936 49.9421C58.0914 50.6964 58.2179 51.4334 58.3424 52.1754C58.4576 52.8625 58.5389 53.5514 58.565 54.248C58.5667 54.2906 58.5684 54.3331 58.5702 54.377C58.5747 54.5005 58.5787 54.624 58.5824 54.7476C58.5835 54.7802 58.5845 54.8128 58.5856 54.8464C58.6609 57.4024 58.0772 60.0222 56.873 62.2782C56.8556 62.3112 56.8382 62.3441 56.8203 62.3781C56.428 63.1191 55.961 63.7935 55.4407 64.4497C55.4088 64.4906 55.3768 64.5316 55.3438 64.5738C54.6444 65.4523 53.81 66.2233 53.0152 67.0138C52.8103 67.2176 52.6055 67.4215 52.4008 67.6256C52.32 67.7061 52.239 67.7865 52.158 67.8669C52.108 67.9168 52.0579 67.9667 52.0079 68.0166C51.9432 68.081 51.9432 68.0809 51.8771 68.1466C51.7765 68.2491 51.6817 68.3555 51.5877 68.4642C51.4263 68.6503 51.2563 68.826 51.0823 69.0003C51.0501 69.0328 51.0179 69.0652 50.9847 69.0986C50.8794 69.2047 50.7738 69.3105 50.6682 69.4164C50.6319 69.4529 50.5955 69.4893 50.5581 69.5269C50.366 69.7197 50.1737 69.9124 49.9813 70.105C49.7836 70.303 49.5863 70.5014 49.3891 70.6999C49.2364 70.8534 49.0835 71.0066 48.9304 71.1597C48.8576 71.2327 48.7848 71.3058 48.7122 71.3791C47.8698 72.2281 47.0338 72.8174 45.7964 72.8293C44.8319 72.8321 44.0257 72.5328 43.3333 71.8461C42.9383 71.4379 42.6975 70.9637 42.4584 70.4557C42.421 70.3769 42.3836 70.2982 42.3463 70.2194C42.0203 69.5316 41.7019 68.8405 41.388 68.1472C41.1422 67.6044 40.893 67.0633 40.6421 66.5229C40.6237 66.4832 40.6053 66.4434 40.5863 66.4025C40.5114 66.2413 40.4366 66.0801 40.3618 65.9189C40.1641 65.4929 39.967 65.0666 39.7701 64.6402C39.753 64.6031 39.7359 64.566 39.7182 64.5278C39.4552 63.9579 39.1938 63.3873 38.9333 62.8163C38.6329 62.1581 38.3289 61.5017 38.0232 60.846C37.6765 61.0456 37.3347 61.2507 36.9981 61.4668C36.9552 61.4943 36.9123 61.5217 36.8681 61.5499C36.7294 61.6386 36.5909 61.7274 36.4523 61.8162C36.257 61.9414 36.0616 62.0665 35.8662 62.1916C35.793 62.2385 35.793 62.2385 35.7183 62.2863C35.0527 62.7123 34.3841 63.1334 33.7134 63.5513C33.5072 63.6797 33.3013 63.8084 33.097 63.9398C31.9939 64.6477 30.8387 64.9497 29.5379 64.6763C28.3041 64.3888 27.4783 63.5221 26.6135 62.6549C26.5459 62.5874 26.4784 62.5199 26.4109 62.4523C26.2291 62.2706 26.0475 62.0888 25.866 61.9069C25.6753 61.7159 25.4846 61.5251 25.2938 61.3343C24.933 60.9734 24.5724 60.6124 24.2118 60.2514C23.8019 59.841 23.3919 59.4307 22.9819 59.0205C22.2812 58.3194 21.5807 57.6182 20.8802 56.9169C20.8507 56.8874 20.8212 56.8578 20.7908 56.8274C20.7366 56.7731 20.6824 56.7189 20.6282 56.6646C20.5808 56.6171 20.5333 56.5697 20.4859 56.5223C20.4247 56.4609 20.3637 56.3992 20.3028 56.3376C20.1862 56.2224 20.066 56.1126 19.9441 56.003C19.5847 55.6761 19.2426 55.3322 18.899 54.9888C18.8266 54.9167 18.7542 54.8445 18.6818 54.7724C18.4868 54.578 18.2919 54.3834 18.0971 54.1888C17.9752 54.067 17.8532 53.9452 17.7312 53.8234C17.3488 53.4416 16.9665 53.0598 16.5844 52.6778C16.5406 52.6341 16.4968 52.5903 16.4531 52.5466C16.4314 52.5249 16.4096 52.5032 16.3873 52.4808C16.035 52.1287 15.6823 51.7769 15.3295 51.4252C14.9661 51.0628 14.6028 50.7001 14.2399 50.3372C14.0366 50.134 13.8332 49.9309 13.6295 49.728C13.4381 49.5374 13.2471 49.3464 13.0563 49.1552C12.9864 49.0853 12.9164 49.0155 12.8463 48.9459C12.4007 48.503 12.0046 48.0727 11.7264 47.5028C11.7109 47.4712 11.6954 47.4397 11.6795 47.4072C11.1771 46.3576 11.1514 45.2154 11.5098 44.1215C11.7778 43.4195 12.2209 42.7952 12.6253 42.167C12.7443 41.9817 12.8621 41.7956 12.9796 41.6093C13.0017 41.5742 13.0239 41.5392 13.0467 41.503C13.264 41.1586 13.4795 40.8131 13.6952 40.4676C13.8756 40.1788 14.0566 39.8904 14.2386 39.6025C14.2606 39.5676 14.2826 39.5328 14.3052 39.4969C14.4234 39.3098 14.5421 39.1231 14.6614 38.9367C14.6868 38.8969 14.7122 38.8571 14.7383 38.816C14.7869 38.7399 14.8356 38.6638 14.8845 38.5879C14.9173 38.5364 14.9173 38.5364 14.9507 38.4839C14.9699 38.4539 14.9891 38.424 15.0089 38.3931C15.0682 38.2884 15.1115 38.1816 15.1539 38.0692C14.3133 37.6804 13.4718 37.2939 12.6244 36.92C12.0238 36.6547 11.4267 36.3825 10.8313 36.1057C10.7914 36.0872 10.7516 36.0686 10.7106 36.0496C10.5513 35.9755 10.392 35.9014 10.2327 35.8273C9.84373 35.6464 9.45416 35.467 9.06411 35.2885C9.03137 35.2735 8.99863 35.2585 8.96489 35.2431C8.42044 34.9942 7.87346 34.7512 7.32591 34.5092C6.8101 34.281 6.29729 34.047 5.78676 33.8072C5.75578 33.7927 5.7248 33.7781 5.69288 33.7631C5.5044 33.6745 5.31625 33.5853 5.12841 33.4953C5.07108 33.4679 5.07109 33.4679 5.01261 33.44C4.18104 33.0343 3.61718 32.3133 3.31684 31.453C3.04415 30.4877 3.15175 29.5616 3.59585 28.6679C3.82932 28.264 4.16786 27.9284 4.49705 27.6027C4.53849 27.5613 4.57993 27.5199 4.62263 27.4773C4.71185 27.3882 4.80123 27.2993 4.89071 27.2104C5.03255 27.0696 5.17404 26.9285 5.3155 26.7873C5.53942 26.5639 5.76355 26.3407 5.98778 26.1177C6.38914 25.7184 6.79025 25.3188 7.19111 24.919C7.33146 24.779 7.47194 24.6392 7.61252 24.4995C7.679 24.4333 7.74543 24.3672 7.81184 24.301C7.89235 24.2208 7.97294 24.1406 8.05364 24.0606C8.24887 23.8657 8.43593 23.6671 8.61583 23.458C8.70495 23.3555 8.79881 23.2586 8.89482 23.1625C8.93245 23.1247 8.97008 23.0869 9.00885 23.048C9.04847 23.0085 9.08808 22.969 9.1289 22.9283C9.17063 22.8865 9.21237 22.8447 9.25537 22.8016C9.34319 22.7138 9.43104 22.626 9.51898 22.5383C9.6307 22.4268 9.74222 22.3152 9.85367 22.2034C9.96136 22.0955 10.0692 21.9878 10.1771 21.8801C10.2166 21.8405 10.2561 21.8008 10.2968 21.76C10.5225 21.5352 10.7536 21.3204 10.9959 21.1136C11.0643 21.0534 11.0643 21.0534 11.1341 20.992C13.9878 18.525 17.6597 17.4505 21.391 17.51C21.4313 17.5106 21.4715 17.5111 21.513 17.5117C22.5524 17.5312 23.6047 17.6626 24.6239 17.8654C26.5941 18.2565 28.6251 17.6893 30.2832 16.6037C30.6595 16.3476 31.0169 16.0766 31.349 15.7648C31.5097 15.6194 31.6802 15.4881 31.8514 15.3553C32.0604 15.193 32.2658 15.0269 32.4704 14.8592C32.8202 14.5735 33.177 14.2979 33.5374 14.0256C33.6318 13.9543 33.7261 13.8827 33.8204 13.8111C34.228 13.5024 34.6427 13.205 35.0616 12.912C35.155 12.8463 35.2479 12.7799 35.3406 12.7133C35.8853 12.3226 36.4461 11.9571 37.0086 11.5927C37.1232 11.5183 37.2374 11.4435 37.3514 11.3684C38.2633 10.769 39.2033 10.2128 40.1567 9.68256C40.2871 9.60964 40.4168 9.53565 40.5463 9.46135C41.793 8.74944 43.0758 8.09677 44.3848 7.50733C44.5385 7.43777 44.6917 7.36694 44.8448 7.29589C46.2481 6.64949 47.6953 6.08846 49.1575 5.59026C49.1886 5.57962 49.2197 5.56897 49.2518 5.55801C53.2825 4.17994 57.4512 3.22967 61.701 2.87426C61.8161 2.86445 61.9311 2.85405 62.0462 2.84349C64.5135 2.62003 67.0555 2.62806 69.5222 2.85508ZM42.1742 22.4518C41.3643 23.3439 40.7454 24.3534 40.3794 25.5027C40.3683 25.5368 40.3573 25.571 40.3459 25.6062C39.7056 27.6184 39.9597 29.8072 40.8997 31.6812C41.1074 32.0811 41.3525 32.4456 41.6268 32.8023C41.6584 32.8443 41.6899 32.8862 41.7224 32.9294C42.4236 33.8251 43.2938 34.5516 44.3064 35.0662C44.3406 35.0838 44.3748 35.1014 44.41 35.1196C45.1719 35.5089 45.9531 35.7763 46.8012 35.8978C46.8508 35.9049 46.8508 35.9049 46.9014 35.9122C49.0061 36.2037 51.131 35.6655 52.8269 34.3825C52.8509 34.3641 52.875 34.3458 52.8997 34.327C52.9643 34.278 52.9643 34.278 53.0302 34.2281C54.7483 32.8736 55.7121 30.9303 56.0136 28.7908C56.0279 28.6647 56.0359 28.5401 56.0413 28.4133C56.0432 28.3693 56.0432 28.3693 56.0452 28.3244C56.128 26.0556 55.2849 24.0211 53.7775 22.361C53.7292 22.3076 53.7292 22.3076 53.6799 22.2531C52.3216 20.8279 50.2674 20.0084 48.3214 19.9485C45.9809 19.9024 43.807 20.7635 42.1742 22.4518Z" fill="black" fill-opacity="0.2"/>
<path d="M9.42514 54.1008C9.66303 54.2998 9.88547 54.5085 10.1042 54.7283C10.1385 54.7627 10.1729 54.797 10.2083 54.8324C10.3227 54.9469 10.437 55.0615 10.5513 55.1762C10.6335 55.2585 10.7158 55.3409 10.7981 55.4232C10.975 55.6003 11.1519 55.7774 11.3287 55.9546C11.5846 56.2112 11.8407 56.4675 12.0969 56.7239C12.5131 57.1404 12.9291 57.557 13.3451 57.9736C13.37 57.9985 13.3949 58.0234 13.4205 58.0491C13.6222 58.2511 13.8239 58.4531 14.0256 58.6552C14.2019 58.8317 14.3782 59.0083 14.5544 59.1848C14.5916 59.2221 14.5916 59.2221 14.6296 59.2601C15.0441 59.6752 15.4586 60.0902 15.8732 60.5051C16.1286 60.7607 16.3839 61.0164 16.6391 61.2722C16.8348 61.4683 17.0306 61.6643 17.2265 61.8603C17.3066 61.9405 17.3867 62.0207 17.4667 62.101C17.5762 62.2109 17.6859 62.3205 17.7955 62.4302C17.827 62.4618 17.8584 62.4934 17.8907 62.5259C18.0683 62.7031 18.2507 62.8719 18.4413 63.0351C18.5963 63.171 18.741 63.3174 18.8867 63.4632C18.9205 63.4969 18.9544 63.5306 18.9892 63.5653C19.0999 63.6755 19.2103 63.7858 19.3207 63.8962C19.3979 63.9732 19.475 64.0502 19.5522 64.1272C19.7132 64.2879 19.8741 64.4487 20.0349 64.6096C20.2415 64.8162 20.4485 65.0225 20.6555 65.2287C20.8145 65.3873 20.9734 65.5461 21.1322 65.7049C21.2085 65.7811 21.2848 65.8572 21.3613 65.9333C21.4675 66.0391 21.5735 66.1453 21.6795 66.2515C21.7113 66.283 21.7431 66.3146 21.7759 66.3471C21.8188 66.3903 21.8188 66.3903 21.8626 66.4344C21.8877 66.4595 21.9128 66.4845 21.9386 66.5103C21.9917 66.5749 21.9917 66.5749 21.9917 66.6673C21.8981 66.7481 21.8041 66.8236 21.7058 66.8983C21.6765 66.9209 21.6471 66.9435 21.6169 66.9668C21.5559 67.0137 21.4949 67.0605 21.4337 67.1073C21.3528 67.1694 21.2726 67.2322 21.1925 67.2955C20.5411 67.8068 19.8419 68.237 19.1272 68.6539C19.093 68.6739 19.0588 68.6939 19.0235 68.7146C15.5549 70.7281 11.5249 71.6413 5.68808 72.1377C5.61498 72.1387 5.54189 72.1403 5.46881 72.1424C5.02184 72.1553 4.65086 72.1534 4.29688 71.8417C4.19275 71.7302 4.19275 71.7302 4.13229 71.6281C4.11127 71.5941 4.09025 71.5602 4.06859 71.5252C3.92665 71.2371 3.9622 70.9137 3.96193 70.6001C3.9619 70.5678 3.96186 70.5355 3.96183 70.5022C3.9664 67.4665 4.53583 64.3801 5.45189 61.4928C5.46688 61.4447 5.48186 61.3965 5.4973 61.3469C6.22301 59.0194 7.33567 56.7815 8.81298 54.84C8.83694 54.8085 8.86091 54.777 8.8856 54.7445C9.05691 54.5221 9.23819 54.3101 9.42514 54.1008Z" fill="#07041E"/>
<path d="M9.42514 54.1008C9.66303 54.2998 9.88547 54.5085 10.1042 54.7283C10.1385 54.7627 10.1729 54.797 10.2083 54.8324C10.3227 54.9469 10.437 55.0615 10.5513 55.1762C10.6335 55.2585 10.7158 55.3409 10.7981 55.4232C10.975 55.6003 11.1519 55.7774 11.3287 55.9546C11.5846 56.2112 11.8407 56.4675 12.0969 56.7239C12.5131 57.1404 12.9291 57.557 13.3451 57.9736C13.37 57.9985 13.3949 58.0234 13.4205 58.0491C13.6222 58.2511 13.8239 58.4531 14.0256 58.6552C14.2019 58.8317 14.3782 59.0083 14.5544 59.1848C14.5916 59.2221 14.5916 59.2221 14.6296 59.2601C15.0441 59.6752 15.4586 60.0902 15.8732 60.5051C16.1286 60.7607 16.3839 61.0164 16.6391 61.2722C16.8348 61.4683 17.0306 61.6643 17.2265 61.8603C17.3066 61.9405 17.3867 62.0207 17.4667 62.101C17.5762 62.2109 17.6859 62.3205 17.7955 62.4302C17.827 62.4618 17.8584 62.4934 17.8907 62.5259C18.0683 62.7031 18.2507 62.8719 18.4413 63.0351C18.5963 63.171 18.741 63.3174 18.8867 63.4632C18.9205 63.4969 18.9544 63.5306 18.9892 63.5653C19.0999 63.6755 19.2103 63.7858 19.3207 63.8962C19.3979 63.9732 19.475 64.0502 19.5522 64.1272C19.7132 64.2879 19.8741 64.4487 20.0349 64.6096C20.2415 64.8162 20.4485 65.0225 20.6555 65.2287C20.8145 65.3873 20.9734 65.5461 21.1322 65.7049C21.2085 65.7811 21.2848 65.8572 21.3613 65.9333C21.4675 66.0391 21.5735 66.1453 21.6795 66.2515C21.7113 66.283 21.7431 66.3146 21.7759 66.3471C21.8188 66.3903 21.8188 66.3903 21.8626 66.4344C21.8877 66.4595 21.9128 66.4845 21.9386 66.5103C21.9917 66.5749 21.9917 66.5749 21.9917 66.6673C21.8981 66.7481 21.8041 66.8236 21.7058 66.8983C21.6765 66.9209 21.6471 66.9435 21.6169 66.9668C21.5559 67.0137 21.4949 67.0605 21.4337 67.1073C21.3528 67.1694 21.2726 67.2322 21.1925 67.2955C20.5411 67.8068 19.8419 68.237 19.1272 68.6539C19.093 68.6739 19.0588 68.6939 19.0235 68.7146C15.5549 70.7281 11.5249 71.6413 5.68808 72.1377C5.61498 72.1387 5.54189 72.1403 5.46881 72.1424C5.02184 72.1553 4.65086 72.1534 4.29688 71.8417C4.19275 71.7302 4.19275 71.7302 4.13229 71.6281C4.11127 71.5941 4.09025 71.5602 4.06859 71.5252C3.92665 71.2371 3.9622 70.9137 3.96193 70.6001C3.9619 70.5678 3.96186 70.5355 3.96183 70.5022C3.9664 67.4665 4.53583 64.3801 5.45189 61.4928C5.46688 61.4447 5.48186 61.3965 5.4973 61.3469C6.22301 59.0194 7.33567 56.7815 8.81298 54.84C8.83694 54.8085 8.86091 54.777 8.8856 54.7445C9.05691 54.5221 9.23819 54.3101 9.42514 54.1008Z" fill="black" fill-opacity="0.2"/>
<path d="M9.42514 54.1008C9.66303 54.2998 9.88547 54.5085 10.1042 54.7283C10.1385 54.7627 10.1729 54.797 10.2083 54.8324C10.3227 54.9469 10.437 55.0615 10.5513 55.1762C10.6335 55.2585 10.7158 55.3409 10.7981 55.4232C10.975 55.6003 11.1519 55.7774 11.3287 55.9546C11.5846 56.2112 11.8407 56.4675 12.0969 56.7239C12.5131 57.1404 12.9291 57.557 13.3451 57.9736C13.37 57.9985 13.3949 58.0234 13.4205 58.0491C13.6222 58.2511 13.8239 58.4531 14.0256 58.6552C14.2019 58.8317 14.3782 59.0083 14.5544 59.1848C14.5916 59.2221 14.5916 59.2221 14.6296 59.2601C15.0441 59.6752 15.4586 60.0902 15.8732 60.5051C16.1286 60.7607 16.3839 61.0164 16.6391 61.2722C16.8348 61.4683 17.0306 61.6643 17.2265 61.8603C17.3066 61.9405 17.3867 62.0207 17.4667 62.101C17.5762 62.2109 17.6859 62.3205 17.7955 62.4302C17.827 62.4618 17.8584 62.4934 17.8907 62.5259C18.0683 62.7031 18.2507 62.8719 18.4413 63.0351C18.5963 63.171 18.741 63.3174 18.8867 63.4632C18.9205 63.4969 18.9544 63.5306 18.9892 63.5653C19.0999 63.6755 19.2103 63.7858 19.3207 63.8962C19.3979 63.9732 19.475 64.0502 19.5522 64.1272C19.7132 64.2879 19.8741 64.4487 20.0349 64.6096C20.2415 64.8162 20.4485 65.0225 20.6555 65.2287C20.8145 65.3873 20.9734 65.5461 21.1322 65.7049C21.2085 65.7811 21.2848 65.8572 21.3613 65.9333C21.4675 66.0391 21.5735 66.1453 21.6795 66.2515C21.7113 66.283 21.7431 66.3146 21.7759 66.3471C21.8188 66.3903 21.8188 66.3903 21.8626 66.4344C21.8877 66.4595 21.9128 66.4845 21.9386 66.5103C21.9917 66.5749 21.9917 66.5749 21.9917 66.6673C21.8981 66.7481 21.8041 66.8236 21.7058 66.8983C21.6765 66.9209 21.6471 66.9435 21.6169 66.9668C21.5559 67.0137 21.4949 67.0605 21.4337 67.1073C21.3528 67.1694 21.2726 67.2322 21.1925 67.2955C20.5411 67.8068 19.8419 68.237 19.1272 68.6539C19.093 68.6739 19.0588 68.6939 19.0235 68.7146C15.5549 70.7281 11.5249 71.6413 5.68808 72.1377C5.61498 72.1387 5.54189 72.1403 5.46881 72.1424C5.02184 72.1553 4.65086 72.1534 4.29688 71.8417C4.19275 71.7302 4.19275 71.7302 4.13229 71.6281C4.11127 71.5941 4.09025 71.5602 4.06859 71.5252C3.92665 71.2371 3.9622 70.9137 3.96193 70.6001C3.9619 70.5678 3.96186 70.5355 3.96183 70.5022C3.9664 67.4665 4.53583 64.3801 5.45189 61.4928C5.46688 61.4447 5.48186 61.3965 5.4973 61.3469C6.22301 59.0194 7.33567 56.7815 8.81298 54.84C8.83694 54.8085 8.86091 54.777 8.8856 54.7445C9.05691 54.5221 9.23819 54.3101 9.42514 54.1008Z" fill="black" fill-opacity="0.2"/>
<path d="M9.42514 54.1008C9.66303 54.2998 9.88547 54.5085 10.1042 54.7283C10.1385 54.7627 10.1729 54.797 10.2083 54.8324C10.3227 54.9469 10.437 55.0615 10.5513 55.1762C10.6335 55.2585 10.7158 55.3409 10.7981 55.4232C10.975 55.6003 11.1519 55.7774 11.3287 55.9546C11.5846 56.2112 11.8407 56.4675 12.0969 56.7239C12.5131 57.1404 12.9291 57.557 13.3451 57.9736C13.37 57.9985 13.3949 58.0234 13.4205 58.0491C13.6222 58.2511 13.8239 58.4531 14.0256 58.6552C14.2019 58.8317 14.3782 59.0083 14.5544 59.1848C14.5916 59.2221 14.5916 59.2221 14.6296 59.2601C15.0441 59.6752 15.4586 60.0902 15.8732 60.5051C16.1286 60.7607 16.3839 61.0164 16.6391 61.2722C16.8348 61.4683 17.0306 61.6643 17.2265 61.8603C17.3066 61.9405 17.3867 62.0207 17.4667 62.101C17.5762 62.2109 17.6859 62.3205 17.7955 62.4302C17.827 62.4618 17.8584 62.4934 17.8907 62.5259C18.0683 62.7031 18.2507 62.8719 18.4413 63.0351C18.5963 63.171 18.741 63.3174 18.8867 63.4632C18.9205 63.4969 18.9544 63.5306 18.9892 63.5653C19.0999 63.6755 19.2103 63.7858 19.3207 63.8962C19.3979 63.9732 19.475 64.0502 19.5522 64.1272C19.7132 64.2879 19.8741 64.4487 20.0349 64.6096C20.2415 64.8162 20.4485 65.0225 20.6555 65.2287C20.8145 65.3873 20.9734 65.5461 21.1322 65.7049C21.2085 65.7811 21.2848 65.8572 21.3613 65.9333C21.4675 66.0391 21.5735 66.1453 21.6795 66.2515C21.7113 66.283 21.7431 66.3146 21.7759 66.3471C21.8188 66.3903 21.8188 66.3903 21.8626 66.4344C21.8877 66.4595 21.9128 66.4845 21.9386 66.5103C21.9917 66.5749 21.9917 66.5749 21.9917 66.6673C21.8981 66.7481 21.8041 66.8236 21.7058 66.8983C21.6765 66.9209 21.6471 66.9435 21.6169 66.9668C21.5559 67.0137 21.4949 67.0605 21.4337 67.1073C21.3528 67.1694 21.2726 67.2322 21.1925 67.2955C20.5411 67.8068 19.8419 68.237 19.1272 68.6539C19.093 68.6739 19.0588 68.6939 19.0235 68.7146C15.5549 70.7281 11.5249 71.6413 5.68808 72.1377C5.61498 72.1387 5.54189 72.1403 5.46881 72.1424C5.02184 72.1553 4.65086 72.1534 4.29688 71.8417C4.19275 71.7302 4.19275 71.7302 4.13229 71.6281C4.11127 71.5941 4.09025 71.5602 4.06859 71.5252C3.92665 71.2371 3.9622 70.9137 3.96193 70.6001C3.9619 70.5678 3.96186 70.5355 3.96183 70.5022C3.9664 67.4665 4.53583 64.3801 5.45189 61.4928C5.46688 61.4447 5.48186 61.3965 5.4973 61.3469C6.22301 59.0194 7.33567 56.7815 8.81298 54.84C8.83694 54.8085 8.86091 54.777 8.8856 54.7445C9.05691 54.5221 9.23819 54.3101 9.42514 54.1008Z" fill="black" fill-opacity="0.2"/>
<path d="M9.42514 54.1008C9.66303 54.2998 9.88547 54.5085 10.1042 54.7283C10.1385 54.7627 10.1729 54.797 10.2083 54.8324C10.3227 54.9469 10.437 55.0615 10.5513 55.1762C10.6335 55.2585 10.7158 55.3409 10.7981 55.4232C10.975 55.6003 11.1519 55.7774 11.3287 55.9546C11.5846 56.2112 11.8407 56.4675 12.0969 56.7239C12.5131 57.1404 12.9291 57.557 13.3451 57.9736C13.37 57.9985 13.3949 58.0234 13.4205 58.0491C13.6222 58.2511 13.8239 58.4531 14.0256 58.6552C14.2019 58.8317 14.3782 59.0083 14.5544 59.1848C14.5916 59.2221 14.5916 59.2221 14.6296 59.2601C15.0441 59.6752 15.4586 60.0902 15.8732 60.5051C16.1286 60.7607 16.3839 61.0164 16.6391 61.2722C16.8348 61.4683 17.0306 61.6643 17.2265 61.8603C17.3066 61.9405 17.3867 62.0207 17.4667 62.101C17.5762 62.2109 17.6859 62.3205 17.7955 62.4302C17.827 62.4618 17.8584 62.4934 17.8907 62.5259C18.0683 62.7031 18.2507 62.8719 18.4413 63.0351C18.5963 63.171 18.741 63.3174 18.8867 63.4632C18.9205 63.4969 18.9544 63.5306 18.9892 63.5653C19.0999 63.6755 19.2103 63.7858 19.3207 63.8962C19.3979 63.9732 19.475 64.0502 19.5522 64.1272C19.7132 64.2879 19.8741 64.4487 20.0349 64.6096C20.2415 64.8162 20.4485 65.0225 20.6555 65.2287C20.8145 65.3873 20.9734 65.5461 21.1322 65.7049C21.2085 65.7811 21.2848 65.8572 21.3613 65.9333C21.4675 66.0391 21.5735 66.1453 21.6795 66.2515C21.7113 66.283 21.7431 66.3146 21.7759 66.3471C21.8188 66.3903 21.8188 66.3903 21.8626 66.4344C21.8877 66.4595 21.9128 66.4845 21.9386 66.5103C21.9917 66.5749 21.9917 66.5749 21.9917 66.6673C21.8981 66.7481 21.8041 66.8236 21.7058 66.8983C21.6765 66.9209 21.6471 66.9435 21.6169 66.9668C21.5559 67.0137 21.4949 67.0605 21.4337 67.1073C21.3528 67.1694 21.2726 67.2322 21.1925 67.2955C20.5411 67.8068 19.8419 68.237 19.1272 68.6539C19.093 68.6739 19.0588 68.6939 19.0235 68.7146C15.5549 70.7281 11.5249 71.6413 5.68808 72.1377C5.61498 72.1387 5.54189 72.1403 5.46881 72.1424C5.02184 72.1553 4.65086 72.1534 4.29688 71.8417C4.19275 71.7302 4.19275 71.7302 4.13229 71.6281C4.11127 71.5941 4.09025 71.5602 4.06859 71.5252C3.92665 71.2371 3.9622 70.9137 3.96193 70.6001C3.9619 70.5678 3.96186 70.5355 3.96183 70.5022C3.9664 67.4665 4.53583 64.3801 5.45189 61.4928C5.46688 61.4447 5.48186 61.3965 5.4973 61.3469C6.22301 59.0194 7.33567 56.7815 8.81298 54.84C8.83694 54.8085 8.86091 54.777 8.8856 54.7445C9.05691 54.5221 9.23819 54.3101 9.42514 54.1008Z" fill="black" fill-opacity="0.2"/>
</svg>
