<svg width="91" height="91" viewBox="0 0 91 91" fill="none" xmlns="http://www.w3.org/2000/svg">
<path d="M83.2439 3.41865C83.3609 3.42937 83.4779 3.43953 83.595 3.44954C84.2518 3.50756 84.8754 3.56369 85.4683 3.8724C85.5178 3.89815 85.5673 3.92389 85.6183 3.95041C86.412 4.39732 86.9436 5.07779 87.2272 5.94275C87.3653 6.44975 87.4082 6.96239 87.4532 7.48409C87.4666 7.6396 87.4808 7.79503 87.495 7.95047C87.5772 8.85811 87.6283 9.76536 87.6536 10.6763C87.6569 10.7931 87.6605 10.9099 87.6641 11.0267C87.6976 12.1577 87.6855 13.2872 87.6396 14.4176C87.6373 14.4764 87.6349 14.5352 87.6325 14.5958C87.4301 19.5212 86.6091 24.4372 82.2045 37.2852C82.1886 37.3209 82.1727 37.3567 82.1564 37.3935C81.9575 37.8399 81.7511 38.2824 81.5407 38.7235C81.5053 38.7978 81.47 38.8721 81.4347 38.9465C80.9091 40.0505 80.3603 41.1373 79.7705 42.2086C79.7229 42.2955 79.7229 42.2955 79.6744 42.3842C79.1952 43.2596 78.6865 44.1148 78.1636 44.9645C78.0693 45.1182 77.9758 45.2722 77.8827 45.4266C77.495 46.0661 77.0835 46.6894 76.6691 47.3118C76.6414 47.3535 76.6137 47.3952 76.5851 47.4382C76.1817 48.044 75.7677 48.6416 75.3449 49.2341C75.291 49.3098 75.291 49.3098 75.236 49.387C74.4323 50.5108 73.5985 51.6115 72.7238 52.681C72.4941 52.9624 72.2714 53.2485 72.0515 53.5376C71.9571 53.6613 71.8608 53.7833 71.7632 53.9045C70.4203 55.5745 69.5785 57.5227 69.5606 59.6895C69.5601 59.7438 69.5601 59.7438 69.5597 59.7993C69.5571 60.7025 69.7085 61.585 69.8576 62.4734C69.9955 63.2961 70.0928 64.121 70.1242 64.9551C70.1262 65.0061 70.1282 65.0571 70.1303 65.1096C70.1358 65.2575 70.1405 65.4054 70.1449 65.5533C70.1462 65.5923 70.1475 65.6314 70.1488 65.6716C70.2389 68.7321 69.54 71.869 68.0981 74.5703C68.0773 74.6098 68.0565 74.6492 68.0351 74.6899C67.5653 75.5771 67.0062 76.3847 66.3832 77.1703C66.3449 77.2194 66.3066 77.2684 66.2672 77.319C65.4298 78.3708 64.4306 79.2941 63.4789 80.2405C63.2336 80.4846 62.9884 80.7287 62.7433 80.9731C62.6465 81.0695 62.5496 81.1658 62.4526 81.2621C62.3927 81.3218 62.3327 81.3815 62.2728 81.4412C62.1953 81.5183 62.1953 81.5183 62.1163 81.5969C61.9957 81.7196 61.8823 81.8471 61.7697 81.9772C61.5764 82.2001 61.3729 82.4104 61.1646 82.6192C61.126 82.658 61.0874 82.6968 61.0477 82.7368C60.9215 82.8638 60.7951 82.9906 60.6687 83.1173C60.6252 83.161 60.5817 83.2047 60.5369 83.2497C60.3068 83.4805 60.0766 83.7113 59.8463 83.9418C59.6095 84.1789 59.3732 84.4165 59.1371 84.6542C58.9543 84.838 58.7712 85.0214 58.5879 85.2048C58.5007 85.2922 58.4136 85.3797 58.3267 85.4674C57.318 86.484 56.317 87.1896 54.8353 87.2038C53.6805 87.2073 52.7152 86.8488 51.8861 86.0266C51.4131 85.5379 51.1248 84.9701 50.8385 84.3618C50.7938 84.2675 50.749 84.1731 50.7043 84.0788C50.314 83.2553 49.9327 82.4278 49.5568 81.5976C49.2626 80.9477 48.9641 80.2999 48.6638 79.6528C48.6417 79.6052 48.6196 79.5576 48.5969 79.5086C48.5073 79.3155 48.4177 79.1225 48.3281 78.9295C48.0913 78.4195 47.8553 77.9091 47.6196 77.3985C47.5991 77.3541 47.5786 77.3097 47.5575 77.2639C47.2425 76.5815 46.9296 75.8983 46.6176 75.2146C46.258 74.4265 45.8939 73.6405 45.5279 72.8554C45.1128 73.0944 44.7035 73.3399 44.3005 73.5988C44.2491 73.6316 44.1978 73.6644 44.1448 73.6983C43.9788 73.8044 43.8129 73.9108 43.647 74.0171C43.4131 74.167 43.1791 74.3168 42.9452 74.4666C42.8575 74.5227 42.8575 74.5227 42.768 74.58C41.9711 75.0901 41.1705 75.5943 40.3674 76.0946C40.1206 76.2484 39.8741 76.4025 39.6295 76.5599C38.3087 77.4074 36.9254 77.7691 35.3679 77.4416C33.8905 77.0975 32.9017 76.0597 31.8662 75.0213C31.7854 74.9405 31.7045 74.8596 31.6236 74.7788C31.406 74.5612 31.1886 74.3434 30.9712 74.1257C30.7429 73.897 30.5145 73.6686 30.2861 73.4401C29.8541 73.008 29.4223 72.5757 28.9906 72.1434C28.4998 71.652 28.0089 71.1608 27.5179 70.6695C26.6789 69.8301 25.8401 68.9905 25.0014 68.1508C24.966 68.1155 24.9307 68.0801 24.8943 68.0436C24.8294 67.9786 24.7645 67.9137 24.6996 67.8487C24.6428 67.7919 24.5861 67.735 24.5293 67.6783C24.4559 67.6048 24.383 67.531 24.31 67.4571C24.1704 67.3192 24.0264 67.1878 23.8806 67.0565C23.4502 66.6651 23.0405 66.2533 22.6291 65.8422C22.5425 65.7558 22.4558 65.6694 22.3691 65.583C22.1356 65.3502 21.9023 65.1173 21.669 64.8842C21.523 64.7384 21.3769 64.5925 21.2309 64.4467C20.773 63.9896 20.3152 63.5324 19.8577 63.075C19.8053 63.0226 19.7529 62.9703 19.7004 62.9179C19.6745 62.8919 19.6485 62.8659 19.6217 62.8392C19.1998 62.4175 18.7776 61.9962 18.3552 61.5751C17.92 61.1412 17.485 60.707 17.0504 60.2725C16.807 60.0291 16.5635 59.7859 16.3196 59.543C16.0904 59.3147 15.8617 59.0861 15.6332 58.8571C15.5496 58.7735 15.4658 58.6899 15.3819 58.6065C14.8483 58.0762 14.374 57.561 14.0409 56.8786C14.0223 56.8408 14.0038 56.8031 13.9847 56.7642C13.3831 55.5074 13.3524 54.1398 13.7816 52.8299C14.1024 51.9894 14.633 51.2419 15.1172 50.4896C15.2597 50.2678 15.4007 50.0449 15.5414 49.8219C15.5679 49.7799 15.5944 49.7379 15.6218 49.6947C15.8819 49.2822 16.14 48.8685 16.3983 48.4549C16.6143 48.109 16.831 47.7637 17.0489 47.419C17.0752 47.3773 17.1016 47.3355 17.1287 47.2925C17.2702 47.0685 17.4124 46.845 17.5552 46.6218C17.5856 46.5741 17.616 46.5265 17.6473 46.4773C17.7054 46.3861 17.7638 46.2951 17.8223 46.2042C17.8615 46.1425 17.8615 46.1425 17.9016 46.0796C17.9246 46.0438 17.9476 46.0079 17.9713 45.9709C18.0422 45.8455 18.0941 45.7177 18.1449 45.5831C17.1383 45.1175 16.1308 44.6548 15.1162 44.207C14.3969 43.8894 13.682 43.5635 12.9691 43.232C12.9214 43.2098 12.8737 43.1877 12.8246 43.1648C12.6338 43.0761 12.4431 42.9874 12.2523 42.8987C11.7866 42.6821 11.3202 42.4672 10.8531 42.2535C10.8139 42.2356 10.7747 42.2177 10.7343 42.1992C10.0824 41.9011 9.42746 41.6102 8.77184 41.3204C8.15422 41.0472 7.5402 40.767 6.92891 40.4799C6.89182 40.4625 6.85473 40.445 6.8165 40.4271C6.59082 40.321 6.36553 40.2142 6.14061 40.1065C6.07198 40.0736 6.07198 40.0736 6.00196 40.0401C5.00626 39.5544 4.33112 38.6911 3.9715 37.661C3.64498 36.5052 3.77382 35.3964 4.30557 34.3263C4.58512 33.8426 4.99048 33.4408 5.38464 33.0508C5.43426 33.0012 5.48388 32.9517 5.53501 32.9006C5.64185 32.7939 5.74886 32.6874 5.85601 32.5811C6.02584 32.4125 6.19526 32.2435 6.36463 32.0745C6.63275 31.807 6.90112 31.5397 7.1696 31.2726C7.65019 30.7945 8.13046 30.3161 8.61043 29.8374C8.77849 29.6698 8.94669 29.5023 9.11503 29.335C9.19463 29.2559 9.27417 29.1767 9.35368 29.0974C9.45008 29.0013 9.54658 28.9054 9.64321 28.8095C9.87697 28.5762 10.101 28.3384 10.3164 28.088C10.4231 27.9652 10.5355 27.8493 10.6504 27.7342C10.6955 27.689 10.7405 27.6437 10.787 27.5971C10.8344 27.5498 10.8818 27.5025 10.9307 27.4537C10.9807 27.4037 11.0306 27.3537 11.0821 27.3021C11.1873 27.1969 11.2925 27.0918 11.3978 26.9868C11.5315 26.8533 11.6651 26.7196 11.7985 26.5858C11.9275 26.4566 12.0566 26.3277 12.1857 26.1987C12.2331 26.1512 12.2804 26.1038 12.3292 26.0549C12.5994 25.7857 12.876 25.5285 13.1662 25.2809C13.2481 25.2088 13.2481 25.2088 13.3317 25.1353C16.7486 22.1814 21.1453 20.8948 25.613 20.966C25.6612 20.9667 25.7094 20.9674 25.7591 20.9681C27.0037 20.9914 28.2637 21.1488 29.484 21.3916C31.843 21.8599 34.2749 21.1807 36.2602 19.8809C36.7108 19.5743 37.1387 19.2497 37.5364 18.8764C37.7289 18.7023 37.933 18.5451 38.138 18.3861C38.3882 18.1918 38.6342 17.9929 38.8792 17.7921C39.298 17.45 39.7253 17.1199 40.1567 16.794C40.2698 16.7085 40.3827 16.6228 40.4956 16.537C40.9836 16.1674 41.4802 15.8114 41.9818 15.4606C42.0937 15.3819 42.2049 15.3024 42.3159 15.2226C42.9681 14.7547 43.6396 14.3171 44.3131 13.8808C44.4502 13.7918 44.587 13.7022 44.7236 13.6123C45.8154 12.8946 46.9409 12.2285 48.0826 11.5937C48.2386 11.5064 48.3939 11.4178 48.549 11.3288C50.0417 10.4764 51.5778 9.69491 53.1451 8.98913C53.3292 8.90584 53.5126 8.82104 53.6959 8.73595C55.3761 7.96198 57.1091 7.29021 58.8598 6.69368C58.8971 6.68094 58.9343 6.6682 58.9727 6.65507C63.7989 5.00501 68.7905 3.86719 73.8791 3.44163C74.0169 3.42988 74.1546 3.41742 74.2924 3.40478C77.2467 3.13722 80.2905 3.14683 83.2439 3.41865ZM50.4982 26.8832C49.5285 27.9514 48.7874 29.1601 48.3492 30.5363C48.3359 30.5771 48.3227 30.618 48.309 30.6602C47.5424 33.0695 47.8466 35.6903 48.9722 37.9343C49.2209 38.4131 49.5143 38.8495 49.8428 39.2767C49.8806 39.3269 49.9184 39.3771 49.9573 39.4288C50.7968 40.5013 51.8388 41.3711 53.0513 41.9873C53.0922 42.0084 53.1331 42.0295 53.1753 42.0513C54.0876 42.5175 55.023 42.8376 56.0385 42.9831C56.0979 42.9916 56.0979 42.9916 56.1584 43.0003C58.6785 43.3494 61.2228 42.705 63.2535 41.1687C63.2823 41.1467 63.311 41.1248 63.3407 41.1022C63.418 41.0436 63.418 41.0436 63.4969 40.9838C65.5541 39.362 66.7082 37.0351 67.0691 34.4734C67.0862 34.3224 67.0959 34.1732 67.1024 34.0214C67.1046 33.9687 67.1046 33.9687 67.1069 33.9149C67.2061 31.1983 66.1967 28.7623 64.3917 26.7745C64.3338 26.7106 64.3338 26.7106 64.2748 26.6453C62.6484 24.9389 60.1888 23.9576 57.8587 23.8858C55.0562 23.8307 52.4533 24.8617 50.4982 26.8832Z" fill="white"/>
<path d="M11.2852 64.7789C11.57 65.0173 11.8364 65.2671 12.0982 65.5304C12.1394 65.5715 12.1805 65.6126 12.2229 65.655C12.3599 65.7921 12.4967 65.9293 12.6336 66.0666C12.7321 66.1652 12.8306 66.2638 12.9292 66.3624C13.141 66.5744 13.3527 66.7865 13.5644 66.9987C13.8709 67.3059 14.1776 67.6129 14.4843 67.9198C14.9826 68.4185 15.4808 68.9173 15.9789 69.4162C16.0087 69.446 16.0384 69.4758 16.0691 69.5065C16.3106 69.7484 16.5522 69.9903 16.7937 70.2323C17.0047 70.4436 17.2158 70.655 17.4268 70.8664C17.4714 70.9111 17.4714 70.9111 17.5169 70.9566C18.0132 71.4536 18.5095 71.9505 19.006 72.4474C19.3118 72.7534 19.6175 73.0595 19.923 73.3658C20.1573 73.6006 20.3918 73.8353 20.6263 74.0699C20.7222 74.166 20.8181 74.2621 20.9139 74.3582C21.0451 74.4897 21.1763 74.6211 21.3077 74.7524C21.3453 74.7902 21.3829 74.828 21.4217 74.867C21.6343 75.0792 21.8527 75.2812 22.0809 75.4766C22.2665 75.6393 22.4397 75.8147 22.6142 75.9892C22.6547 76.0296 22.6952 76.0699 22.737 76.1115C22.8694 76.2434 23.0017 76.3755 23.1339 76.5077C23.2262 76.5999 23.3186 76.6921 23.411 76.7843C23.6038 76.9767 23.7965 77.1693 23.9891 77.3619C24.2365 77.6093 24.4842 77.8563 24.7321 78.1032C24.9226 78.2931 25.1128 78.4832 25.303 78.6734C25.3943 78.7647 25.4857 78.8558 25.5772 78.9469C25.7044 79.0736 25.8313 79.2007 25.9582 79.3278C25.9963 79.3656 26.0344 79.4034 26.0736 79.4423C26.125 79.4941 26.125 79.4941 26.1775 79.5469C26.2075 79.5769 26.2375 79.6069 26.2684 79.6378C26.332 79.7151 26.332 79.7151 26.332 79.8257C26.2199 79.9225 26.1075 80.0129 25.9897 80.1023C25.9546 80.1294 25.9195 80.1565 25.8833 80.1843C25.8103 80.2405 25.7372 80.2966 25.664 80.3525C25.5671 80.4269 25.471 80.5022 25.3752 80.578C24.5951 81.1902 23.7579 81.7052 22.9022 82.2045C22.8612 82.2284 22.8202 82.2524 22.778 82.2771C18.6248 84.688 13.7994 85.7815 6.81054 86.3758C6.72302 86.377 6.63549 86.3789 6.54799 86.3815C6.0128 86.397 5.56861 86.3946 5.14476 86.0215C5.02007 85.888 5.02007 85.888 4.94768 85.7656C4.92251 85.725 4.89734 85.6844 4.8714 85.6425C4.70145 85.2976 4.74402 84.9103 4.74369 84.5348C4.74365 84.4961 4.74362 84.4574 4.74358 84.4176C4.74905 80.7827 5.43087 77.0871 6.52774 73.63C6.54568 73.5723 6.56362 73.5146 6.58211 73.4552C7.45105 70.6684 8.78332 67.9888 10.5522 65.664C10.5809 65.6263 10.6096 65.5886 10.6392 65.5497C10.8443 65.2835 11.0613 65.0296 11.2852 64.7789Z" fill="white"/>
</svg>
