<svg width="24" height="24" viewBox="0 0 24 24" fill="none" xmlns="http://www.w3.org/2000/svg">
<path d="M5.09106 6.41666C4.54088 6.36853 4.05585 6.77552 4.00771 7.3257C3.95958 7.87589 4.36657 8.36092 4.91675 8.40905L6.90914 8.58336C7.45932 8.6315 7.94436 8.22451 7.99249 7.67433C8.04063 7.12414 7.63363 6.63911 7.08345 6.59098L5.09106 6.41666Z" fill="white"/>
<path d="M16.0077 8.3257C16.0558 7.77552 16.5409 7.36853 17.0911 7.41666L19.0835 7.59098C19.6336 7.63911 20.0406 8.12414 19.9925 8.67433C19.9444 9.22451 19.4593 9.6315 18.9091 9.58336L16.9168 9.40905C16.3666 9.36092 15.9596 8.87589 16.0077 8.3257Z" fill="white"/>
<path d="M5.09106 15.0038C4.54088 14.9557 4.05585 15.3627 4.00771 15.9129C3.95958 16.463 4.36657 16.9481 4.91675 16.9962L6.90914 17.1705C7.45932 17.2187 7.94436 16.8117 7.99249 16.2615C8.04063 15.7113 7.63363 15.2263 7.08345 15.1781L5.09106 15.0038Z" fill="white"/>
<path d="M16.0077 17.3257C16.0558 16.7755 16.5409 16.3685 17.0911 16.4167L19.0835 16.591C19.6336 16.6391 20.0406 17.1241 19.9925 17.6743C19.9444 18.2245 19.4593 18.6315 18.9091 18.5834L16.9168 18.4091C16.3666 18.3609 15.9596 17.8759 16.0077 17.3257Z" fill="white"/>
<path fill-rule="evenodd" clip-rule="evenodd" d="M12 9.00002C13.6569 9.00002 15 10.3432 15 12C15 13.6569 13.6569 15 12 15C10.3431 15 9 13.6569 9 12C9 10.3432 10.3431 9.00002 12 9.00002ZM13 12C13 11.4477 12.5523 11 12 11C11.4477 11 11 11.4477 11 12C11 12.5523 11.4477 13 12 13C12.5523 13 13 12.5523 13 12Z" fill="white"/>
<path fill-rule="evenodd" clip-rule="evenodd" d="M5.24433 3.24161C2.9311 3.04306 1 4.8759 1 7.16864V15.1597C1 17.2848 2.65497 19.0305 4.74824 19.2067C5.60626 19.2789 6.65879 19.3733 7.90243 19.4952C8.12536 19.5171 8.62104 19.6182 9.33769 19.784C9.80886 19.8929 10.3392 20.0209 10.8964 20.1554C11.1591 20.2189 11.4286 20.2839 11.6998 20.3489C12.5391 20.5499 13.3972 20.7507 14.1357 20.9018C14.8428 21.0465 15.5356 21.1667 15.9958 21.1687C17.1394 21.1735 18.2579 21.1519 19.2151 21.1227C21.3562 21.0574 23 19.2885 23 17.1812V9.19283C23 6.88041 21.0564 5.0729 18.7836 5.13432C17.931 5.15737 16.9751 5.17281 16.0042 5.16871C15.7734 5.16773 15.2712 5.09269 14.5366 4.94238C13.8335 4.79849 13.0034 4.60455 12.1657 4.40389C11.9033 4.34103 11.6395 4.27736 11.3793 4.21453L11.3782 4.21429C10.8155 4.07845 10.269 3.94653 9.78829 3.83537C9.10812 3.67808 8.47589 3.54188 8.09757 3.50479C6.99864 3.39705 6.04679 3.31049 5.24433 3.24161ZM3 7.16864C3 6.01886 3.95662 5.13844 5.07329 5.23428C5.86777 5.30248 6.81158 5.3883 7.90243 5.49525C8.12536 5.5171 8.62104 5.61823 9.33769 5.78395C9.80894 5.89293 10.3394 6.02098 10.8967 6.15551C11.1596 6.21896 11.4284 6.28385 11.6998 6.34886C12.5391 6.5499 13.3972 6.75066 14.1357 6.90178C14.8428 7.04647 15.5356 7.16674 15.9958 7.16869C16.9924 7.17291 17.9697 7.15705 18.8377 7.13359C20.0241 7.10153 21 8.04472 21 9.19283V17.1812C21 18.2426 20.1803 19.0924 19.1541 19.1237C18.2131 19.1524 17.1187 19.1734 16.0042 19.1687C15.7734 19.1677 15.2712 19.0927 14.5366 18.9424C13.8335 18.7985 13.0034 18.6046 12.1657 18.4039C11.903 18.341 11.639 18.2772 11.3784 18.2143C10.8156 18.0785 10.269 17.9465 9.7883 17.8354C9.10812 17.6781 8.47589 17.5419 8.09757 17.5048C6.84472 17.382 5.78303 17.2867 4.91593 17.2137C3.83407 17.1227 3 16.2209 3 15.1597V7.16864Z" fill="white"/>
</svg>
