<svg width="24" height="24" viewBox="0 0 24 24" fill="none" xmlns="http://www.w3.org/2000/svg">
<path fill-rule="evenodd" clip-rule="evenodd" d="M12.4371 3.04825C10.5981 2.72156 8.85425 4.10132 8.85425 5.99638V13.966C8.20082 13.7434 7.35474 13.5816 6.27981 13.5816C4.91945 13.5816 3.92479 13.8406 3.22256 14.1554C1.91841 14.7399 1.77219 16.1802 2.26688 17.1553C2.57698 17.7665 3.04923 18.5757 3.66779 19.2462C4.26955 19.8984 5.15214 20.5709 6.27981 20.5709C9.11359 20.5709 10.8542 18.0357 10.8542 15.6903V8.29434L19.8683 9.92199L19.6653 14.4117C19.0069 14.1811 18.1459 14.0107 17.0428 14.0107C15.6825 14.0107 14.6878 14.2698 13.9856 14.5845C12.6814 15.1691 12.5352 16.6093 13.0299 17.5844C13.34 18.1956 13.8123 19.0049 14.4308 19.6753C15.0326 20.3275 15.9152 21.0001 17.0428 21.0001C19.5358 21.0001 21.1918 19.0186 21.5434 16.9776C21.5701 16.8225 21.5799 16.6645 21.5726 16.5071L21.9054 9.14521L21.9058 9.13851L21.9959 7.40372C22.075 5.88088 20.9867 4.56712 19.4976 4.30257L12.4371 3.04825ZM8.62778 16.0317C8.70222 16.0687 8.76684 16.1047 8.8223 16.1384C8.63014 17.4781 7.59215 18.5709 6.27981 18.5709C5.98018 18.5709 5.59387 18.3844 5.13771 17.89C4.69836 17.4138 4.32369 16.7889 4.05048 16.2504C3.99147 16.1341 3.99663 16.0472 4.00517 16.0146C4.00541 16.0136 4.00566 16.0127 4.0059 16.0119C4.00762 16.0059 4.00924 16.0023 4.01013 16.0006C4.01107 15.9987 4.01161 15.9981 4.01172 15.998C4.0118 15.9979 4.01286 15.9966 4.01599 15.9942C4.01923 15.9918 4.02673 15.9866 4.0406 15.9804C4.46607 15.7897 5.17929 15.5816 6.27981 15.5816C7.47778 15.5816 8.21763 15.8282 8.62778 16.0317ZM19.967 7.90747L10.8542 6.262V5.99638C10.8542 5.40115 11.4186 4.89863 12.0872 5.01742L19.1478 6.27174C19.6783 6.36599 20.0235 6.8197 19.9986 7.29998L19.967 7.90747ZM19.5647 16.5559C19.5648 16.556 19.5662 16.5576 19.568 16.5618L19.562 16.6957C19.3138 17.998 18.3114 19.0001 17.0428 19.0001C16.7432 19.0001 16.3569 18.8135 15.9007 18.3191C15.4614 17.8429 15.0867 17.2181 14.8135 16.6795C14.7545 16.5632 14.7597 16.4764 14.7682 16.4437C14.7684 16.4427 14.7687 16.4419 14.7689 16.441C14.7707 16.4351 14.7723 16.4315 14.7732 16.4297C14.7737 16.4287 14.7741 16.4281 14.7743 16.4277M19.5647 16.5559L19.5637 16.5549L19.5647 16.5559ZM19.5637 16.5549C19.5631 16.5544 19.5617 16.5533 19.5591 16.5518L19.5637 16.5549ZM19.5591 16.5518C19.1941 16.3366 18.4204 16.0107 17.0428 16.0107L19.5591 16.5518ZM17.0428 16.0107C15.9423 16.0107 15.2291 16.2188 14.8036 16.4096L17.0428 16.0107ZM14.8036 16.4096C14.7898 16.4158 14.7823 16.4209 14.779 16.4233L14.8036 16.4096ZM14.779 16.4233L14.7758 16.426L14.779 16.4233ZM14.7758 16.426L14.7743 16.4277L14.7758 16.426Z" fill="white"/>
</svg>
