<svg width="30" height="30" viewBox="0 0 30 30" fill="none" xmlns="http://www.w3.org/2000/svg">
<path d="M3.125 15C3.125 9.40207 3.125 6.60311 4.86405 4.86405C6.60311 3.125 9.40207 3.125 15 3.125C20.598 3.125 23.3968 3.125 25.136 4.86405C26.875 6.60311 26.875 9.40207 26.875 15C26.875 20.5979 26.875 23.3969 25.136 25.136C23.3968 26.875 20.598 26.875 15 26.875C9.40207 26.875 6.60311 26.875 4.86405 25.136C3.125 23.3969 3.125 20.5979 3.125 15Z" stroke="white" stroke-width="2" stroke-linecap="round" stroke-linejoin="round"/>
<path d="M8.75 21.25L13.992 16.0081M13.992 16.0081L8.75 8.75H12.2222L16.0081 13.9919M13.992 16.0081L17.7777 21.25H21.25L16.0081 13.9919M21.25 8.75L16.0081 13.9919" stroke="white" stroke-width="2" stroke-linecap="round" stroke-linejoin="round"/>
</svg>
